<?xml version="1.0" encoding="UTF-8" standalone="no"?><!DOCTYPE svg PUBLIC "-//W3C//DTD SVG 1.1//EN" "http://www.w3.org/Graphics/SVG/1.1/DTD/svg11.dtd"><svg width="100%" height="100%" viewBox="0 0 513 513" version="1.1" xmlns="http://www.w3.org/2000/svg" xmlns:xlink="http://www.w3.org/1999/xlink" xml:space="preserve" xmlns:serif="http://www.serif.com/" style="fill-rule:evenodd;clip-rule:evenodd;"><path d="M256,0.005c141.385,0 256,114.615 256,256c0,141.385 -114.615,256 -256,256c-141.385,0 -256,-114.615 -256,-256c0,-141.385 114.615,-256 256,-256Z" style="fill:#ff5b61;fill-rule:nonzero;"/><rect x="13.408" y="98.971" width="442.053" height="322.002" style="fill:#dfe1e3;fill-rule:nonzero;"/><rect x="0" y="87.433" width="446.612" height="325.605" style="fill:#fff;fill-rule:nonzero;"/><rect x="13.408" y="87.433" width="446.612" height="46.169" style="fill:#ffca4f;fill-rule:nonzero;"/><rect x="341.701" y="157.186" width="30.84" height="30.84" style="fill:#fbb429;fill-rule:nonzero;"/><path d="M432.294,22.429c3.076,0.614 6.083,1.423 9.007,2.411l13.496,-18.096l20.332,11.741l-8.937,20.752c2.332,2.055 4.531,4.254 6.582,6.586l20.752,-8.937l11.741,20.332l-18.096,13.491c0.988,2.924 1.797,5.931 2.411,9.007l22.424,2.637l0,23.477l-22.424,2.637c-0.614,3.076 -1.423,6.083 -2.411,9.007l18.096,13.491l-11.736,20.332l-20.752,-8.933c-2.055,2.332 -4.254,4.526 -6.582,6.582l8.937,20.757l-20.332,11.736l-13.496,-18.101c-2.919,0.988 -5.926,1.797 -9.007,2.411l-2.637,22.429l-23.477,0l-2.637,-22.424c-3.076,-0.614 -6.083,-1.423 -9.007,-2.411l-13.491,18.096l-20.332,-11.736l8.933,-20.757c-2.332,-2.051 -4.526,-4.249 -6.582,-6.582l-20.757,8.933l-11.736,-20.332l18.096,-13.496c-0.988,-2.924 -1.797,-5.931 -2.411,-9.007l-22.424,-2.637l0,-23.477l22.42,-2.637c0.614,-3.076 1.423,-6.083 2.411,-9.007l-18.092,-13.491l11.736,-20.332l20.757,8.933c2.055,-2.328 4.249,-4.531 6.582,-6.582l-8.933,-20.752l20.332,-11.741l13.496,18.096c2.924,-0.984 5.931,-1.797 9.007,-2.411l2.636,-22.424l23.477,0l2.637,22.424l-0.009,0.005Zm-14.378,23.223c-26.752,0 -48.437,21.69 -48.437,48.437c0,26.752 21.685,48.437 48.437,48.437c26.747,0 48.437,-21.685 48.437,-48.437c0,-26.747 -21.685,-48.437 -48.437,-48.437Z" style="fill:#20d0c2;fill-rule:nonzero;"/><path d="M417.916,34.696c32.798,0 59.393,26.59 59.393,59.393c0,32.803 -26.59,59.397 -59.393,59.397c-32.803,0 -59.397,-26.59 -59.397,-59.397c-0.001,-32.798 26.589,-59.393 59.397,-59.393Z" style="fill:#fff;fill-rule:nonzero;"/><g><path d="M366.606,92.117l12.304,0l0,3.94l-12.304,0l0,-3.944l0,0.004Zm102.624,3.94l-12.309,0l0,-3.94l12.309,0l0,3.94Zm-53.282,49.342l0,-12.304l3.94,0l0,12.304l-3.94,0Zm3.94,-102.625l0,12.304l-3.94,0l0,-12.304l3.94,0Z" style="fill:#807d7d;fill-rule:nonzero;"/><path d="M417.865,62.377c1.533,0 2.785,1.252 2.785,2.785l0,27.043l27.043,0c1.533,0 2.785,1.252 2.785,2.781c0,1.533 -1.256,2.785 -2.785,2.785l-29.828,0l0,-2.785l-2.785,0l0,-29.829c0,-1.533 1.252,-2.785 2.785,-2.785l0,0.005Z" style="fill:#807d7d;fill-rule:nonzero;"/></g><path d="M417.916,88.667c2.993,0 5.418,2.425 5.418,5.418c0,2.993 -2.425,5.418 -5.418,5.418c-1.085,0 -2.097,-0.319 -2.942,-0.864l-21.87,22.064c-0.457,0.462 -1.201,0.462 -1.663,0.005c-0.457,-0.457 -0.462,-1.206 -0.005,-1.663l21.888,-22.082c-0.527,-0.836 -0.831,-1.82 -0.831,-2.882c0,-2.993 2.429,-5.418 5.422,-5.418l0,0.004l0.001,0Z" style="fill:#ff5b61;fill-rule:nonzero;"/><g><rect x="109.511" y="157.186" width="30.84" height="30.84" style="fill:#dfe1e3;fill-rule:nonzero;stroke:#fff;stroke-width:194.47px;"/><rect x="155.948" y="157.186" width="30.84" height="30.84" style="fill:#dfe1e3;fill-rule:nonzero;"/><rect x="202.385" y="157.186" width="30.835" height="30.84" style="fill:#dfe1e3;fill-rule:nonzero;"/></g><rect x="248.822" y="157.186" width="30.84" height="30.84" style="fill:#20d0c2;fill-rule:nonzero;"/><rect x="295.26" y="157.186" width="30.84" height="30.84" style="fill:#dfe1e3;fill-rule:nonzero;"/><rect x="63.074" y="157.186" width="30.84" height="30.84" style="fill:#fbb429;fill-rule:nonzero;"/><rect x="109.511" y="205.752" width="30.84" height="30.84" style="fill:#dfe1e3;fill-rule:nonzero;"/><rect x="155.948" y="205.752" width="30.84" height="30.84" style="fill:#20d0c2;fill-rule:nonzero;"/><rect x="202.385" y="205.752" width="30.835" height="30.84" style="fill:#dfe1e3;fill-rule:nonzero;"/><rect x="248.822" y="205.752" width="30.84" height="30.84" style="fill:#fbb429;fill-rule:nonzero;"/><g><rect x="295.26" y="205.752" width="30.84" height="30.84" style="fill:#dfe1e3;fill-rule:nonzero;"/><rect x="341.701" y="205.752" width="30.84" height="30.84" style="fill:#dfe1e3;fill-rule:nonzero;"/><rect x="63.074" y="205.752" width="30.84" height="30.84" style="fill:#dfe1e3;fill-rule:nonzero;"/><rect x="109.511" y="254.314" width="30.84" height="30.84" style="fill:#dfe1e3;fill-rule:nonzero;"/><rect x="155.948" y="254.314" width="30.84" height="30.84" style="fill:#dfe1e3;fill-rule:nonzero;"/><rect x="202.385" y="254.314" width="30.835" height="30.84" style="fill:#dfe1e3;fill-rule:nonzero;"/><rect x="248.822" y="254.314" width="30.84" height="30.84" style="fill:#dfe1e3;fill-rule:nonzero;"/><rect x="295.26" y="254.314" width="30.84" height="30.84" style="fill:#dfe1e3;fill-rule:nonzero;"/></g><g><rect x="341.701" y="254.314" width="30.84" height="30.84" style="fill:#fbb429;fill-rule:nonzero;"/><rect x="63.074" y="254.314" width="30.84" height="30.84" style="fill:#fbb429;fill-rule:nonzero;"/></g><rect x="109.511" y="302.881" width="30.84" height="30.84" style="fill:#20d0c2;fill-rule:nonzero;"/><g><rect x="155.948" y="302.881" width="30.84" height="30.84" style="fill:#dfe1e3;fill-rule:nonzero;"/><rect x="202.385" y="302.881" width="30.835" height="30.84" style="fill:#dfe1e3;fill-rule:nonzero;"/><rect x="248.822" y="302.881" width="30.84" height="30.84" style="fill:#dfe1e3;fill-rule:nonzero;"/></g><rect x="295.26" y="302.881" width="30.84" height="30.84" style="fill:#20d0c2;fill-rule:nonzero;"/><g><rect x="341.701" y="302.881" width="30.84" height="30.84" style="fill:#dfe1e3;fill-rule:nonzero;"/><rect x="63.074" y="302.881" width="30.84" height="30.84" style="fill:#dfe1e3;fill-rule:nonzero;"/><rect x="109.511" y="349.664" width="30.84" height="30.84" style="fill:#dfe1e3;fill-rule:nonzero;"/><rect x="63.074" y="349.664" width="30.84" height="30.84" style="fill:#dfe1e3;fill-rule:nonzero;"/></g><path d="M116.55,316.363c-0.48,-0.568 -0.406,-1.423 0.166,-1.903c0.568,-0.48 1.423,-0.406 1.898,0.162l4.78,5.69l13.071,-11.459c0.559,-0.49 1.418,-0.434 1.908,0.125c0.49,0.564 0.434,1.418 -0.129,1.908l-14.106,12.364l-0.023,0.018c-0.568,0.48 -1.423,0.406 -1.898,-0.166l-5.667,-6.743l0,0.004Z" style="fill:#fff;fill-rule:nonzero;"/><path d="M127.469,280.544c9.806,0 18.683,3.977 25.108,10.401c6.425,6.424 10.401,15.302 10.401,25.108c0,9.806 -3.977,18.683 -10.401,25.108c-6.424,6.425 -15.302,10.401 -25.108,10.401c-9.806,0 -18.683,-3.977 -25.108,-10.401c-6.425,-6.425 -10.401,-15.302 -10.401,-25.108c0,-9.806 3.977,-18.683 10.401,-25.108c6.425,-6.424 15.302,-10.401 25.108,-10.401Zm21.768,13.741c-5.57,-5.57 -13.265,-9.016 -21.768,-9.016c-8.499,0 -16.198,3.446 -21.764,9.016c-5.57,5.57 -9.016,13.265 -9.016,21.764c0,8.503 3.446,16.198 9.016,21.768c5.57,5.57 13.265,9.016 21.764,9.016c8.503,0 16.198,-3.446 21.768,-9.016c5.57,-5.57 9.016,-13.265 9.016,-21.768c0,-8.499 -3.446,-16.198 -9.016,-21.764Z" style="fill:#fbb429;fill-rule:nonzero;"/></svg>