<?xml version="1.0" encoding="UTF-8" standalone="no"?><!DOCTYPE svg PUBLIC "-//W3C//DTD SVG 1.1//EN" "http://www.w3.org/Graphics/SVG/1.1/DTD/svg11.dtd"><svg width="100%" height="100%" viewBox="0 0 512 512" version="1.1" xmlns="http://www.w3.org/2000/svg" xmlns:xlink="http://www.w3.org/1999/xlink" xml:space="preserve" xmlns:serif="http://www.serif.com/" style="fill-rule:evenodd;clip-rule:evenodd;stroke-linejoin:round;stroke-miterlimit:1.41421;"><path d="M255.999,512c141.001,0 256.001,-115 256.001,-256.001c0,-140.999 -115,-255.999 -256.001,-255.999c-140.999,0 -255.999,115 -255.999,255.999c0,141.001 115,256.001 255.999,256.001Z" style="fill:#ff5b61;fill-rule:nonzero;"/><path d="M11.064,330.63c19.934,-117.258 122.002,-206.538 244.933,-206.538c122.933,0 224.999,89.28 244.935,206.533c-31.946,104.977 -129.51,181.372 -244.935,181.372c-115.421,0.001 -212.987,-76.39 -244.933,-181.367Z" style="fill:#0e7886;fill-rule:nonzero;"/><path d="M482.51,375.347c-1.621,3.069 -3.294,6.103 -5.034,9.097c-0.6,-0.465 -1.111,-0.781 -1.332,-0.743c-0.692,0.13 -0.728,-0.754 -0.104,-1.96c0.624,-1.226 3.973,-1.817 3.896,-3.281c-0.075,-1.31 1.513,-3.093 2.573,-3.111l0,-0.002l0.001,0Zm-15.123,25.064c-4.663,6.815 -9.646,13.388 -14.931,19.707c-1.742,-0.463 -3.265,-0.975 -3.664,-1.61c-0.937,-1.541 0.351,-8.156 3.975,-10.098c3.587,-1.929 8.612,-12.819 10.171,-12.272c1.418,0.494 4.114,3.001 4.449,4.273Zm-20.981,26.687c-0.935,1.036 -1.881,2.068 -2.833,3.091c-2.284,-0.551 -3.951,-1.087 -3.839,-1.519c0.251,-1.08 3.552,-2.747 6.381,-1.687l0.291,0.112l0,0.003Zm-304.049,58.343c-23.936,-11.882 -45.748,-27.393 -64.716,-45.819c-1.182,-2.935 -1.288,-8.178 -0.512,-8.27c0.977,-0.134 1.506,-2.068 0.265,-2.617c-1.263,-0.553 -4.158,-4.24 -4.641,-6.037c-0.47,-1.782 1.718,-10.826 2.769,-12.076c1.067,-1.239 1.947,-7.477 2.43,-7.999c0.492,-0.542 0.331,-3.925 -0.298,-5.309c-0.642,-1.367 -1.859,-5.36 -2.331,-4.661c-0.465,0.695 -2.952,1.151 -4.449,-0.505c-1.499,-1.656 -7.686,-3.995 -7.686,-4.498c0,-0.507 -0.796,-2.39 -1.782,-3.06c-1.01,-0.65 -3.4,-3.828 -4.423,-4.302c-1.008,-0.45 -5.693,-1.023 -6.365,-2.163c-0.701,-1.142 -5.15,-5.084 -8.672,-5.834c-3.541,-0.734 -14.495,-4.965 -15.626,-7.003c-1.135,-2.031 -2.361,-11.536 -3.556,-12.997c-1.177,-1.482 -4.791,-5.539 -4.762,-6.425c0.035,-0.884 -1.376,-0.163 -0.891,1.034c0.165,0.397 0.251,1.162 0.265,1.993c-2.48,-6.365 -4.705,-12.863 -6.678,-19.464c7.71,-43.398 26.681,-82.95 53.82,-115.483c1.232,0.161 2.289,0.52 2.344,0.997c0.123,1.074 2.203,0.699 2.996,-1.786c0.472,-1.462 -0.018,-3.38 -0.437,-4.862c1.072,-1.23 2.159,-2.461 3.272,-3.664c1.901,0.752 4.701,1.865 5.488,3.12c1.1,1.729 4.277,5.995 3.444,6.908c-0.864,0.928 1.404,3.071 2.333,2.033c0.939,-1.05 1.982,-4.723 1.135,-4.842c-0.842,-0.117 -2.882,-4.041 -2.948,-8.127c-0.035,-4.055 5.338,-9.842 6.396,-9.28c1.041,0.575 3.406,3.429 5.711,2.117c2.295,-1.312 4.798,2.994 6.167,2.597c1.347,-0.399 6.868,0.207 7.697,0.675c0.822,0.492 2.304,3.81 3.724,3.81c1.435,0 5.75,0.968 6.387,2.165c0.666,1.191 1.775,4.798 1.12,5.298c-0.657,0.489 -0.353,3.323 0.994,3.962c1.327,0.648 5.448,2.419 5.514,3.378c0.062,0.928 2.181,1.691 1.782,2.467c-0.439,0.752 -0.816,4.507 -1.592,4.862c-0.789,0.348 -1.976,2.313 -2.99,1.345c-1.014,-0.968 -4.628,-1.279 -4.002,-0.408c0.615,0.871 0.862,5.265 0.093,6.742c-0.756,1.519 -1.574,6.046 -4.154,4.2c-2.591,-1.854 -11.739,-5.918 -13.747,-5.819c-2,0.086 -0.353,-4.011 5.382,-6.39l0.88,-6.833l0.465,-4.03c-2.161,-1.374 -5.17,-3.151 -6.632,-3.929c-1.49,-0.787 -5.239,0.922 -6.46,0.331c-1.204,-0.613 -4.875,-0.476 -3.947,-0.086c0.904,0.392 2.41,3.373 2.143,4.956c-0.265,1.574 -1.982,7.069 -3.94,7.741c-1.969,0.683 -9.236,2.963 -8.956,3.503c0.276,0.578 -0.997,3.636 -2.637,4.8c-1.629,1.149 -5.748,6.495 -6.877,7.871c-1.135,1.349 -4.886,4.785 -4.857,5.673c0.051,0.9 -0.893,1.598 0.229,2.132c1.089,0.509 2.17,6.412 4.09,7.424c1.914,1.056 6.676,4.313 7.415,3.814c0.761,-0.483 2.487,1.235 2.972,0.461c0.476,-0.794 2.988,2.322 3.415,4.621c0.419,2.302 2.99,4.939 3.349,2.408c0.359,-2.529 3.091,-6.403 2.361,-6.182c-0.714,0.22 -1.321,-2.231 -0.304,-2.161c1.045,0.088 3.874,-2.846 4.458,-6.196c0.589,-3.338 0.284,-15.718 0.922,-16.084c0.586,-0.351 3.66,0.536 4.231,1.495c0.558,0.957 4.033,0.309 4.908,1.689c0.882,1.4 6.202,1.691 6.202,3.415c0,1.726 0.968,6.29 2.152,6.398c1.191,0.112 4.055,-0.013 4.156,-0.933c0.097,-0.913 1.49,-1.314 2.476,0.683c0.997,2.002 5.135,6.323 5.08,7.128c-0.04,0.796 0.214,3.184 1.44,4.26c1.197,1.078 2.723,6.041 3.464,5.569c0.752,-0.503 3.063,2.297 3.148,4.024c0.071,1.737 0.313,10.178 0.867,11.624c0.558,1.451 4.125,3.947 4.028,5.164c-0.13,1.195 -0.975,3.825 -2.436,3.188c-1.442,-0.633 -3.651,0.637 -3.861,0.015c-0.218,-0.628 -1.31,-2.24 -2.337,-1.804c-1.034,0.419 -3.792,-1.689 -2.209,-3.909c1.614,-2.227 3.14,-7.75 0.986,-6.125c-2.189,1.632 -7.951,0.419 -7.6,1.098c0.351,0.661 -0.794,3.731 -2.103,4.046c-1.299,0.329 -1.947,3.885 -0.873,4.758c1.094,0.915 2.749,3.978 1.065,5.093c-1.444,0.944 -4.829,2.699 -5.314,2.974c0.606,-0.337 -1.521,-2.505 -3.978,-1.757c-2.456,0.778 -7.181,4.807 -6.59,5.543c0.569,0.717 -0.637,4.846 -2.24,5.525c-1.605,0.675 -6.663,3.675 -7.746,5.087c-1.049,1.42 -0.309,7.966 -0.966,8.286c-0.635,0.346 -3.027,0.972 -2.78,1.759c0.207,0.798 -2.646,5.296 -5.322,6.683c-2.712,1.374 -6.024,9.463 -5.578,10.352c0.428,0.891 1.592,4.061 1.299,5.316c-0.284,1.241 -0.93,6.385 -2.73,5.547c-1.786,-0.818 -4.264,-7.483 -5.968,-8.182c-1.735,-0.701 -7.516,-1.18 -7.768,-0.772c-0.267,0.399 -1.682,1.323 -3.254,0.415c-1.568,-0.889 -8.645,-0.481 -9.948,0.313c-1.299,0.807 -6.524,7.642 -7.796,14.243c-1.307,6.617 9.706,10.133 10.226,8.641c0.514,-1.486 3.534,-4.61 4.771,-4.438c1.215,0.146 6.07,1.528 5.591,3.737c-0.485,2.203 0.28,8.206 2.683,8.339c2.441,0.146 5.572,5.847 5.009,8.714c-0.589,2.871 1.876,9.088 2.939,8.345c1.074,-0.761 4.972,-1.976 5.995,-1.539c1.027,0.456 2.875,2.831 4.454,1.605c1.532,-1.252 4.93,-6.416 5.909,-6.727c0.986,-0.333 3.093,-1.517 3.717,-0.677c0.648,0.855 3.343,1.382 3.532,0.379c0.187,-0.994 4.26,-0.062 5.627,1.03c1.336,1.127 3.955,5.076 4.372,4.685c0.388,-0.43 3.576,-0.15 5.662,1.012c2.128,1.153 8.919,5.003 9.604,6.822c0.692,1.845 6.899,6.828 10.438,8.98c3.545,2.125 4.626,8.669 5.426,9.183c0.811,0.514 5.203,1.36 6.923,1.89c1.729,0.553 5.578,3.704 6.685,3.704c1.122,0 5.514,0.556 7.291,1.197c1.755,0.67 5.217,3.801 5.986,3.06c0.756,-0.745 3.757,2.641 4.743,5.345l-0.029,3.499l0.015,2.189c-0.518,1.876 -0.983,4.112 -1.052,4.99c-0.075,0.886 -3.166,4.796 -4.019,5.739c-0.858,0.944 -2.194,5.053 -2.536,5.391c-0.322,0.342 -2.117,1.239 -2.22,2.308c-0.121,1.049 -1.801,5.367 -2.189,8.586c-0.388,3.223 -1.909,12.202 -2.904,12.618c-1.008,0.401 -6.595,2.963 -7.331,4.03c-0.747,1.069 -3.029,4.632 -3.029,5.816c0,0.584 -0.289,1.841 -0.754,3.107l0,-0.005l0.001,0Zm-30.195,-189.907l0.022,-0.011c-0.084,0.037 -0.095,0.044 -0.022,0.011Zm24.472,-139.286c-0.448,-0.062 -10.843,5.378 -20.37,10.775c-10.874,7.382 -21.08,15.63 -30.636,24.599c2.972,-0.223 7.582,-0.765 9.525,-1.098c2.983,-0.494 7.935,-1.318 8.286,-2.159c0.236,-0.686 0.273,-2.736 -0.284,-3.446c0.474,0.031 1.023,0.046 1.444,0.046c1.129,0 3.012,-6.193 4.2,-7.644c1.197,-1.455 8.01,-3.585 9.631,-4.564c1.629,-0.994 5.181,-4.405 6.535,-4.804c1.376,-0.412 3.358,-3.587 3.056,-4.24c-0.295,-0.624 4.608,-3.618 6.489,-4.401c1.85,-0.792 2.189,-2.913 2.125,-3.067l0,0.003l-0.001,0Zm138.56,344.13c3.188,-1.876 8.605,-9.886 10.378,-11.562c1.784,-1.696 3.076,-7.75 3.453,-9.068c0.353,-1.33 3.067,-3.47 4.079,-3.757c0.999,-0.289 4.242,-13.714 7.069,-16.642c2.829,-2.937 6.158,-17.123 5.808,-22.238c-0.362,-5.087 1.823,-14.816 2.487,-17.156c0.679,-2.333 4.231,-6.489 5.342,-7.344c1.091,-0.871 7.929,-10.991 10.151,-14.616c2.183,-3.634 4.286,-11.608 3.872,-13.478c-0.417,-1.872 -5.188,-3.164 -6.081,-2.249c-0.886,0.926 -5.369,1.682 -6.802,1.682c-1.433,0 -4.725,-7.682 -6.764,-9.267c-2.031,-1.572 -3.872,-10.374 -5.049,-12.038c-1.18,-1.665 -4.46,-5.885 -5.492,-6.844c-1.027,-0.961 -1.206,-5.638 -1.442,-6.919c-0.218,-1.266 1.991,0.847 2.372,2.692c0.388,1.868 5.653,9.368 7.287,11.884c1.634,2.536 5.935,10.563 7.029,13.088c1.098,2.496 10.671,1.235 13.774,-0.223c3.111,-1.479 6.976,-3.955 7.128,-4.822c0.13,-0.871 5.093,-3.144 6.458,-4.238c1.374,-1.1 2.595,-6.859 3.49,-7.774c0.9,-0.944 -0.721,-6.427 -1.751,-8.059c-1.027,-1.636 -5.997,-2.941 -6.987,-2.302c-1.012,0.642 -3.146,-3.68 -3.914,-5.261c-0.758,-1.603 -4.557,-3.548 -4.983,-4.626c-0.39,-1.111 1.047,-2.816 1.643,-3.186c0.598,-0.384 7.6,4.531 9.62,6.972c1.993,2.445 4.297,6.932 4.696,7.726c0.355,0.772 5.894,1.177 7.126,0.271c1.226,-0.913 2.648,-0.668 3.131,0.5l1.733,-0.309l6.063,-0.937c2.873,3.107 3.697,5.799 3.636,6.427c-0.057,0.591 1.755,3.12 2.932,3.389c1.177,0.269 2.037,4.242 2.397,5.223c0.342,0.983 3.806,6.919 4.509,9.423c0.712,2.489 3.662,7.364 4.37,8.678c0.686,1.307 1.283,5.089 1.283,6.121c0,1.034 2.211,3.069 3.596,2.972c1.367,-0.084 4.156,-8.78 4.811,-12.014c0.626,-3.23 2.866,-5.891 3.492,-5.891c0.644,0 1.147,-1.819 1.147,-2.513c0,-0.672 3.512,-0.606 3.832,-1.488c0.298,-0.884 1.338,-6.623 2.593,-7.494c1.261,-0.875 5.704,-3.79 7.278,-4.337c1.543,-0.534 5.53,2.904 6.431,4.507c0.884,1.599 1.691,5.688 1.343,6.352c-0.331,0.67 2.099,4.196 4.242,4.13c2.106,-0.06 2.783,2.697 2.838,3.684c0.099,0.999 2.884,3.841 3.448,5.117c0.54,1.272 0.388,4.738 0.015,5.528c-0.386,0.783 -0.132,5.331 0.276,6.612c0.406,1.261 6.943,7.889 9.384,9.897c2.456,2.002 3.605,-4.088 2.342,-5.988c-1.241,-1.896 -5.503,-6.319 -6.509,-7.629c-1.005,-1.33 -1.175,-6.626 -0.796,-8.092c0.362,-1.49 3.728,0.811 5.124,1.881c1.393,1.076 3.223,3.459 3.274,4.258c0.049,0.789 8.804,-4.112 9.099,-9.439c0.322,-5.316 3.223,-11.313 3.51,-12.706c0.291,-1.409 -0.864,-3.336 -1.599,-3.384c-0.747,-0.075 1.299,-4.061 3.75,-4c2.456,0.079 8.365,-6.509 9.761,-9.113c1.393,-2.613 4.213,-4.76 4.527,-5.093c0.342,-0.306 2.306,-6.487 2.648,-9.044c0.331,-2.551 -1.446,-6.544 -1.651,-7.865c-0.209,-1.314 -2.326,-4.355 -2.886,-5.311c-0.531,-0.95 -1.054,-4.531 -0.71,-5.201c0.311,-0.653 2.529,-1.369 2.763,-1.96c0.247,-0.609 2.769,-3.305 2.586,-4.491c-0.19,-1.199 1.574,1.539 2.736,2.518c1.155,0.988 2.408,7.333 3.858,8.032c1.413,0.699 7.232,-6.723 6.509,-11.516c-0.71,-4.802 1.691,-10.929 3.085,-11.483c1.061,-0.41 3.795,-4.286 5.655,-7.073c-12.781,-36.896 -33.977,-69.867 -61.319,-96.627c-0.322,0.02 -0.644,0.033 -0.948,-0.026l-2.128,-0.461c-3.576,-0.763 -5.653,-4.579 -5.047,-5.461c0.212,-0.28 0.159,-0.917 -0.022,-1.68c-1.978,-1.795 -4.019,-3.561 -6.096,-5.285c-1.68,-0.053 -3.464,0 -4.498,-0.053c-2.143,-0.075 -6.782,-1.599 -7.607,-2.43c-0.847,-0.825 -3.645,0.73 -3.797,2.278c-0.187,1.548 -5.065,2.264 -5.512,3.442c-0.494,1.166 -2.994,1.259 -3.484,0.591c-0.481,-0.655 -5.009,1.592 -7.256,1.931c-2.247,0.311 -6.431,2.139 -7.432,2.586c-1.01,0.441 -3.391,2.774 -3.781,3.731c-0.379,0.975 -3.272,2.586 -4.191,2.963c-0.939,0.364 -0.752,4.564 0.454,5.159c1.184,0.582 -2.231,-0.507 -3.728,-1.29c-1.528,-0.745 -3.188,1.801 -3.653,2.679c-0.483,0.875 -1.859,-0.529 -1.804,-1.77c0.046,-1.274 -3.726,-2.28 -4.222,-1.277c-0.509,1.001 -3.12,-0.329 -4.202,-0.897c-1.094,-0.582 -5.766,4.313 -7.503,6.074c-1.735,1.744 -10.045,3.104 -11.6,2.445c-1.559,-0.65 -3.087,3.673 -1.759,3.975c1.307,0.254 -3.378,-0.225 -5.946,0.015c-2.586,0.258 -10.094,3.261 -11.875,4.593c-1.815,1.338 -3.246,-0.293 -3.246,-1.321c0,-1.025 -2.857,-1.973 -3.713,-2.264c-0.833,-0.287 -2.513,5.62 -3.991,6.749c-1.49,1.155 -3.285,-4.608 -6.784,-5.552c-3.503,-0.944 -8.976,-4.33 -10.541,-4.727c-1.539,-0.415 -4.67,-3.689 -5.55,-4.635c-0.884,-0.946 -5.36,-1.724 -6.795,-1.724c-1.44,0 -6.081,2.666 -7.311,3.704c-1.283,1.052 -3.131,0.842 -3.75,1.221c-0.615,0.37 -5.869,5.514 -7.893,7.119c-2.037,1.605 -5.596,8.526 -6.736,10.184c-1.184,1.645 -2.838,1.953 -3.519,2.002c-0.679,0.029 -1.241,1.876 -1.241,2.549c0,0.688 -6.024,3.821 -6.65,6.555c-0.633,2.73 0.591,8.976 0.591,11.198c0,2.22 2.238,6.623 3.907,6.698c1.662,0.079 0.798,3.772 0.351,4.809c-0.437,1.043 1.054,2.17 1.005,3.054c-0.037,0.884 -4.22,2.117 -5.512,2.622c-1.307,0.476 -3.389,3.395 -3.671,4.476c-0.227,0.957 -4.24,1.632 -5.569,2.902c0.324,-0.919 0.778,-2.189 1.135,-2.902c0.769,-1.455 -0.293,-4.002 -0.917,-4.524c-0.637,-0.534 -0.928,-7.774 -1.945,-9.315c-1.016,-1.568 -3.548,-4.196 -4.174,-4.71c-0.626,-0.498 0.434,-2.41 0.792,-3.221c0.373,-0.8 -3.376,-1.268 -4.401,-0.661c-1.023,0.582 -1.574,7.754 -2,9.715c-0.417,1.958 1.852,4.976 2.478,5.111c0.598,0.148 0.439,3.68 -0.873,3.786c-1.316,0.134 -2.514,5.285 -1.841,6.462c0.677,1.175 -0.939,3.49 -1.713,4.019c-0.769,0.523 5.027,0.227 7.69,0.154c2.648,-0.066 4.727,1.116 4.449,1.327c-0.282,0.225 -5.076,0.941 -5.938,2.075c-0.853,1.133 -4.11,3.327 -4.743,4.207c-0.626,0.864 1.074,2.807 2.456,2.714c1.374,-0.079 2.943,4.771 4.022,5.66c1.074,0.913 0.675,3.415 0.218,4.114c-0.505,0.677 -6.972,-0.465 -9.43,0.143c-2.476,0.606 -5.589,5.816 -5.797,7.776c-0.229,1.98 0.399,7.622 0.73,9.188c0.302,1.554 5.466,2.54 6.5,3.305c1.074,0.747 5.995,0.02 7.04,0.494c0.994,0.489 4.335,-5.003 4.998,-7.547c0.637,-2.56 5.911,-7.223 7.003,-8.963c1.091,-1.722 6.764,-1.526 8.16,-2.443c1.393,-0.886 0.615,4.308 1.288,7.161c0.664,2.868 6.092,2.511 5.296,-0.185c-0.798,-2.668 0.54,-3.841 0.758,-2.864c0.24,0.955 5.442,3.089 6.434,4.595c0.977,1.513 0.706,4.721 -0.454,4.685c-1.16,-0.048 -1.206,3.512 0.026,3.894c1.215,0.386 2.857,-4.006 4.176,-4.646c1.305,-0.661 2.37,-3.389 1.753,-3.603c-0.589,-0.212 1.12,-2.657 1.87,-1.852c0.741,0.803 -2.787,-5.32 -5.009,-7.563c-2.218,-2.231 -0.655,-1.237 3.492,2.205l2.866,4.019c0.558,0.723 1.29,2.917 1.781,3.722l0.677,1.184c0.558,1.404 1.049,5.247 1.049,6.295c0,1.019 2.249,3.069 3.609,2.977c1.365,-0.097 2.397,0.65 2.112,0.701c-0.284,0.049 0.902,2.708 2.258,2.771c1.347,0.06 1.936,-3.435 0.569,-3.521c-1.358,-0.073 -1.151,-5.135 -1.329,-7.316c-0.154,-2.205 0.988,-4.011 1.46,-4.011c0.465,0 -0.062,4.524 -0.02,5.565c0.02,1.03 0.589,3.087 1.235,4.555l1.402,1.067l3.142,2.417c4.507,-1.332 10.559,-0.313 10.323,0.615c-0.249,0.922 3.329,1.14 3.55,-0.355c0.209,-1.471 0.379,0.044 0.379,1.083c0,1.008 -2.959,5.031 -3.446,6.903c-0.5,1.845 -10.903,0.586 -15.377,0.245c-4.482,-0.333 -11.081,1.186 -11.597,2.525c-0.492,1.341 -7.485,-3.074 -10.68,-4.412c-3.215,-1.36 -5.73,-6.246 -6.387,-6.879c-0.661,-0.642 0.549,-2.22 0.245,-3.177c-0.311,-0.983 -7.627,-1.182 -9.741,-0.386c-2.136,0.776 -13.103,1.938 -15.703,3.078c-2.575,1.162 -6.498,-0.071 -7.715,-0.287c-1.213,-0.214 -4.114,3.365 -5.578,4.013c-1.497,0.648 -3.356,5.717 -4.165,11.298l-1.989,3.878l-1.29,2.478c-3.627,2.756 -7.629,11.952 -8.815,13.793c-1.166,1.845 -2.108,15.079 -2.108,19.533c0,4.454 3.881,13.877 4.983,16.472c1.1,2.606 7.818,8.354 10.058,9.741c2.247,1.345 9.543,1.528 11.93,1.524c2.381,-0.009 5.115,-2.282 6.035,-5.049l3.512,0.351l1.601,0.168c0.088,1.956 5.259,3.521 6.529,4.213c1.261,0.69 4.679,0.176 5.682,-0.128c1.025,-0.284 2.156,8.846 1.418,11.496c-0.723,2.639 1.799,11.906 2.542,14.702c0.745,2.796 3.918,10.416 4.249,13.161c0.295,2.743 -1.87,11.847 -2.231,15.033c-0.351,3.206 3.973,12.12 5.135,15.189c1.118,3.063 2.046,9.67 2.046,11.19c0,1.532 4.747,10.764 5.816,14.554c1.098,3.808 12.986,4.738 16.175,2.868l-0.005,0.005Zm193.521,-145.823c-0.891,1.255 -1.936,1.327 -2.275,0.165c-0.333,-1.199 -1.118,-4.59 -0.044,-5.905c1.077,-1.32 3.223,4.514 2.319,5.74Zm6.716,12.508c-0.661,1.521 -3.16,4.908 -4.202,4.006c-1.061,-0.926 -1.422,-8.171 0.997,-7.675c2.406,0.512 3.848,2.172 3.205,3.669Zm10.977,-43.94c1.565,-1.076 6.928,-4.546 8.198,-5.706c0.626,-0.553 1.984,-1.504 3.177,-2.392c0.668,2.738 1.336,5.472 1.896,8.244c-0.5,0.889 -0.983,1.508 -1.402,1.704c-2.355,1.083 -4.584,1.759 -4.979,1.486c-0.384,-0.28 -2.932,0.245 -4.198,1.109c-1.268,0.86 -3.717,4.467 -4.696,3.825c-1.023,-0.655 -0.908,-4.449 0.046,-4.449c0.17,0 0.324,0.004 0.498,0.015c-0.375,-0.867 0.251,-2.994 1.457,-3.839l0.003,0.003Zm-65.803,76.422c-0.531,-0.39 -0.465,-0.355 0.04,0.013c-0.013,-0.013 -0.04,-0.013 -0.04,-0.013Zm17.941,16.703c1.034,2.366 -1.347,6.919 -2.8,5.781c-1.457,-1.135 -7.911,-17.343 -11.26,-19.747c-1.879,-1.334 -3.206,-2.275 -3.841,-2.723c1.213,0.805 2.353,-1.967 2.657,-1.268c0.311,0.712 3.88,2.551 5.064,4.945l1.31,2.176l1.206,1.98c3.171,2.518 6.619,6.493 7.664,8.857l0,-0.001Zm-51.399,-26.191c0.906,-1.826 2.474,-2.525 3.468,-1.548c1.016,1.003 2.2,5.49 1.737,6.379c-0.436,0.895 -6.1,-2.994 -5.205,-4.831Zm-75.22,86.611c-0.196,-1.94 -1.819,-8.55 -1.336,-9.551c0.523,-0.986 1.385,-4.544 0.966,-5.442c-0.443,-0.911 0.809,-6.132 1.927,-7.671c1.14,-1.546 6.218,-5.252 6.769,-7.062c0.514,-1.817 2.54,-4.551 2.608,-2.745c0.086,1.79 2.866,12.008 2.425,14.228c-0.434,2.174 -1.164,4.169 -1.583,4.383c-0.437,0.245 -0.955,2.189 -0.955,3.027c0,0.864 -0.364,4.465 -0.811,6.151c-0.434,1.671 -3.583,7.501 -4.751,7.816c-1.118,0.313 -5.029,-1.208 -5.259,-3.137l0,0.003Zm-92.31,-314.419c-1.433,0.172 -5.144,-0.575 -5.785,-1.257c-0.626,-0.675 -6.207,-1.279 -7.801,-0.609c-1.61,0.67 -0.507,-3.914 1.731,-4.405c2.227,-0.507 0.331,-3.669 -2.044,-3.669c-2.388,-0.022 -8.25,-0.88 -9.631,-0.571c-1.382,0.298 -4.079,-0.964 -5.058,-1.107c-0.983,-0.141 -8.037,2.106 -11.362,1.94c-3.349,-0.143 -11.538,0.19 -13.302,0.69c-1.804,0.463 -3.085,3.94 -2.829,5.155c0.265,1.25 -7.922,1.219 -10.493,1.257c-2.58,0.04 -16.305,2.959 -19.883,4.932c-3.585,1.965 -6.385,7.003 -5.201,7.106c1.188,0.097 -1.993,2.952 -3.918,3.623c-1.925,0.653 -6.515,0.95 -7.609,2.033c-1.074,1.074 1.16,1.819 1.585,2.555c0.417,0.706 1.698,-0.635 2.932,0.06c1.193,0.684 5.197,1.01 6.251,1.416c1.078,0.421 -3.384,1.268 -5.479,1.424c-2.097,0.139 -1.625,4.26 0.082,4.824c1.709,0.582 6.112,1.186 6.555,0.474c0.456,-0.714 5.228,0.769 7.393,1.03c2.134,0.227 3.797,5.627 4.441,6.798c0.668,1.162 0.805,5.27 0.639,6.46c-0.146,1.182 3.803,3.349 4.524,2.595c0.692,-0.754 0.492,1.859 -1.083,1.724c-1.574,-0.141 -0.551,4.423 1.418,5.084c1.931,0.65 0.606,3.457 -0.514,4.319c-1.142,0.836 -0.523,3.521 -1.682,4.489c-1.135,0.955 4.099,10.03 4.061,14.708c-0.029,4.659 2.882,8.473 3.993,8.473c1.12,0 4.952,0.935 5.464,1.94c0.503,0.994 2.353,-0.695 3.096,-1.462c0.71,-0.756 2.284,-3.01 3.464,-4.983c1.177,-1.984 3.801,-11.342 4.163,-12.347c0.353,-1.012 4.743,-0.373 5.748,-0.893c0.997,-0.514 3.878,-2.785 4.696,-3.459c0.814,-0.675 7.086,-3.329 8.815,-4.568c1.696,-1.219 4.551,-6.542 5.88,-7.671c1.338,-1.149 -0.684,-0.807 -2.361,-1.903c-1.651,-1.089 -0.922,-2.425 -0.434,-2.937c0.472,-0.52 5.53,0.84 7.276,1.51c1.742,0.692 5.064,-1.709 3.803,-2.65c-1.299,-0.919 -0.615,-0.893 0,-0.503c0.606,0.379 1.261,-3.067 0.6,-3.72c-0.675,-0.668 5.113,-4.884 4.09,-8.877c-1.005,-3.989 1.581,-8.079 3.131,-8.127c1.565,-0.042 1.098,-4.504 -0.761,-4.921c-1.85,-0.412 -0.104,-0.825 0.589,-1.46c0.69,-0.626 1.574,-4.61 1.175,-5.373c-0.419,-0.776 2.846,-1.634 3.409,-2.54c0.584,-0.897 4.304,-2.685 5.638,-2.977c1.307,-0.304 2.02,-3.795 0.593,-3.638l-0.005,0.008Zm32.426,3.25c1.755,0.606 2.692,5.049 3.691,5.19c1.005,0.159 2.531,0.955 3.415,1.819c0.9,0.86 3.605,0.304 5.746,1.42c2.165,1.135 1.427,8.654 -0.56,8.072c-2,-0.604 -6.346,-2.081 -6.857,-0.218c-0.512,1.896 -2.743,6.925 -4.039,6.952c-1.31,0.04 -3.045,-2.963 -4.317,-3.14c-1.272,-0.194 -2.835,-2.531 -1.682,-3.698c1.142,-1.158 1.292,-5.472 0.148,-4.504c-1.169,0.955 -5.741,1.427 -5.781,0.772c-0.02,-0.633 -0.816,-3.936 -1.905,-4.467c-1.083,-0.549 -0.439,-4.694 1.934,-5.933c2.372,-1.219 5.77,1.334 5.292,0.203c-0.452,-1.107 3.153,-3.076 4.917,-2.472l0,0.004l-0.002,0Zm17.392,3.601c3.51,0.489 7.455,-2.388 8.308,-3.215c0.875,-0.807 -9.726,-2.972 -13.758,-3.102c-4.028,-0.121 -7.294,0.421 -7.227,1.224c0.066,0.781 9.157,4.584 12.678,5.091l0,0.002l-0.001,0Zm-64.086,95.004c0.935,0.364 2.419,-3.435 3.195,-3.435c0.778,0 2.732,5.177 2.807,6.312c0.051,1.149 -1.014,2.269 -2.392,2.5c-1.385,0.232 -4.619,0.346 -4.835,-0.972c-0.212,-1.318 0.299,-4.791 1.225,-4.405Zm10.403,-40.404c0.734,1.272 -0.549,7.128 -1.726,7.247c-1.164,0.115 -4.487,1.826 -6.147,2.11c-1.671,0.258 -3.413,-0.628 -3.885,-2.006c-0.481,-1.369 -4.712,-2.009 -4.149,-2.919c0.569,-0.908 1.107,-3.561 0.606,-3.104c-0.52,0.452 -2.408,-0.359 -1.144,-0.908c1.246,-0.558 1.865,-4.822 2.624,-3.951c0.789,0.88 4.917,2.249 6.242,2.324c1.347,0.084 6.859,-0.077 7.58,1.206l0,0.001l-0.001,0Zm115.705,-31.558c-1.883,1.92 -8.868,5.816 -8.006,7.955c0.825,2.161 2.275,8.347 1.66,8.548c-0.626,0.19 -2.835,0.706 -4.449,-0.276c-1.612,-1.01 -5.239,-4.621 -4.584,-5.609c0.672,-1.001 2.562,-9.864 3.722,-11.026c1.147,-1.171 4.317,-3.217 7.086,-4.533c2.732,-1.318 11.668,-3.415 11.866,-3.75c0.174,-0.313 1.149,-1.296 1.936,-1.296c0.787,0 2.214,1.605 1.338,3.554c-0.889,1.969 -8.667,4.533 -10.57,6.431l0,0.002l0.001,0Zm-9.562,-23.084c2.943,2.917 4.566,-1.301 7.79,-0.886c-0.06,-5.923 -8.081,-3.89 -7.79,0.886Zm57.18,1.104c-0.093,1.091 8.134,1.973 10.544,1.546c2.399,-0.415 -0.503,-4.169 -4.022,-3.942c-3.495,0.234 -6.436,1.31 -6.522,2.396Zm-297.851,60.993c-0.862,0.809 -0.106,4.844 1.546,4.963c1.64,0.112 4.271,-6.09 6.29,-4.844c2.011,1.241 3.378,1.735 3.045,1.074c-0.342,-0.65 -6.081,-3.162 -6.793,-3.638c-0.712,-0.428 -3.195,1.676 -4.088,2.447l0,-0.002Zm21.043,136.598c0,0.677 3.585,0.584 4.174,-0.52c0.569,-1.096 0.262,-1.995 -0.706,-1.995c-0.946,-0.001 -3.468,1.821 -3.468,2.515Zm-15.965,-5.9c1.724,-0.331 0.919,2.452 1.316,3.444c0.43,1.001 4.535,1.797 5.364,2.476c0.811,0.67 2.939,-1.263 4.59,-1.052c1.64,0.207 -0.54,-5.693 -3.307,-5.527c-2.756,0.181 -4.934,-2.498 -5.587,-2.831c-0.679,-0.295 -3.845,-2.24 -4.778,-2.97c-0.9,-0.741 -7.933,-1.363 -10.321,-1.363c-2.39,0 -5.018,2.439 -5.382,3.23c-0.386,0.807 3.788,1.349 4.963,0.712c1.195,-0.622 6.762,0.706 7.902,2.046c1.15,1.332 3.513,2.159 5.24,1.835Zm-7.506,5.9c0,0.677 3.623,0.251 4.489,0.276c0.891,0.015 0.849,-0.575 -0.071,-1.31c-0.911,-0.73 -4.421,0.337 -4.421,1.034l0.003,0Zm2.56,-18.646c-0.935,-0.364 -1.696,1.116 -1.696,1.817c0,0.69 0.518,1.268 1.147,1.268c0.648,0 1.49,-2.697 0.549,-3.087l0,0.002Zm7.591,0.591c-0.322,-0.701 -1.868,-1.266 -2.324,-1.266c-0.472,0 -0.814,1.204 -0.728,2.657c0.082,1.462 3.365,-0.706 3.054,-1.391l-0.002,0Zm5.466,8.418c1.462,-0.712 1.643,-2.467 0.776,-2.361c-0.871,0.086 -2.476,-2.527 -3.422,-2.899c-0.941,-0.379 -1.707,1.57 -1.707,2.421c0,0.849 0.529,1.438 1.177,1.259c0.642,-0.157 1.698,2.26 3.177,1.583l-0.001,-0.003Z" style="fill:#20d0c2;fill-rule:nonzero;"/><path d="M102.695,277.448c5.953,0 10.813,-1.561 10.813,-3.477c0,-1.914 -4.857,-3.477 -10.813,-3.477c-5.956,0 -10.813,1.561 -10.813,3.477c0,1.916 4.857,3.477 10.813,3.477Z" style="fill:#fff;fill-rule:nonzero;"/><path d="M104.004,274.325l-3.329,0c-1.867,-4.509 -5.653,-12.442 -7.77,-16.64l-25.148,-51.415c-11.489,-22.979 -22.284,-45.693 -33.659,-68.425c-13.123,-26.24 -15.458,-51.979 0.037,-78.75c30.29,-52.338 105.162,-51.789 135.994,-0.692c16.093,26.672 13.875,52.603 0.45,79.442c-1.962,3.921 -65.34,131.191 -66.575,136.48Z" style="fill:#ffca4f;fill-rule:nonzero;"/><path d="M374.928,220.442c3.367,0 6.114,-0.882 6.114,-1.965c0,-1.083 -2.747,-1.967 -6.114,-1.967c-3.369,0 -6.116,0.884 -6.116,1.967c-0.001,1.083 2.747,1.965 6.116,1.965Z" style="fill:#fff;fill-rule:nonzero;"/><path d="M375.668,218.678l-1.883,0c-1.056,-2.551 -3.197,-7.038 -4.394,-9.412l-14.226,-29.084c-6.498,-13 -12.605,-25.847 -19.041,-38.706c-7.424,-14.843 -8.742,-29.404 0.022,-44.546c17.136,-29.607 59.486,-29.298 76.929,-0.392c9.104,15.09 7.849,29.756 0.251,44.939c-1.109,2.216 -36.962,74.21 -37.661,77.202l0.003,0l0,-0.001Z" style="fill:#ffca4f;fill-rule:nonzero;"/><path d="M361.364,218.199c1.305,3.201 6.359,1.506 5.188,-1.94c-3.298,-8.363 -7.618,-17.14 -12.087,-24.963c-0.642,-1.102 -1.938,-1.647 -3.173,-1.303c-1.72,0.45 -2.553,2.445 -1.682,3.942c4.473,7.827 8.318,15.943 11.754,24.264Zm-243.877,40.801c-0.913,2.238 1.153,4.403 3.503,3.634c0.672,-0.236 1.321,-0.798 1.599,-1.482c3.559,-8.206 7.704,-16.369 12.122,-24.161c1.53,-2.624 -1.98,-5.609 -4.496,-3.142c-3.874,4.562 -10.116,19.129 -12.729,25.148l0,0.003l0.001,0Zm21.063,-38.816c-1.867,2.849 2.245,5.834 4.482,3.201c5.572,-7.514 10.175,-14.68 16.298,-22.009c2.295,-2.924 -1.995,-6.156 -4.291,-3.457c-5.882,7.071 -11.449,14.592 -16.489,22.265Zm27.584,-34.689c-2.242,2.399 0.86,5.964 3.662,4.064c4.926,-5.283 13.055,-12.731 20.384,-18.662c2.778,-2.269 -0.549,-6.451 -3.503,-4.22c-7.261,5.834 -14.098,12.127 -20.542,18.82l0,-0.002l-0.001,0Zm34.122,-28.714c-1.049,0.712 -1.51,1.987 -1.083,3.16c0.564,1.665 2.701,2.364 4.161,1.374c7.587,-4.981 15.456,-9.293 23.825,-12.881c3.054,-1.197 1.671,-6.046 -1.896,-5.111c-8.605,3.089 -17.391,8.462 -25.007,13.458Zm40.799,-18.939c-3.131,0.769 -2.551,5.558 0.961,5.345c3.204,-0.461 11.972,-3.854 27.115,-3.605c3.631,0 3.841,-5.217 0.146,-5.444c-9.972,0 -18.591,1.142 -28.22,3.704l-0.002,0Zm44.05,3.501c8.702,1.885 16.856,5.128 24.509,9.611c3.66,2.189 6.178,-2.584 3.21,-4.458c-7.787,-4.705 -16.721,-8.228 -25.622,-10.275c-5.274,-1.144 -5.25,4.357 -2.099,5.122l0.002,0Zm41.466,15.141c-2.617,-2.353 -6.473,1.568 -3.691,4.07c6.705,5.774 12.801,12.724 17.985,19.837c1.956,2.769 6.454,0.123 4.654,-2.963c-4.948,-7.441 -12.14,-15.079 -18.946,-20.944l-0.002,0Z" style="fill:#fff;fill-rule:nonzero;"/><path d="M37.634,122.152l129.536,0l-2.346,-20.792l-124.923,0l-2.267,20.792Z" style="fill:#f0a400;fill-rule:nonzero;"/><g><path d="M102.404,46.965l0,67.305c-35.694,-23.673 -47.34,5.852 -64.769,7.878l7.666,-67.938c17.725,0.529 31.653,-24.414 57.103,-7.247l0,0.002Z" style="fill:#fff;fill-rule:nonzero;"/><path d="M102.404,46.965l0,67.305c35.694,-23.673 47.34,5.852 64.767,7.878l-7.666,-67.938c-17.722,0.529 -31.653,-24.414 -57.101,-7.247l0,0.002Z" style="fill:#fff;fill-rule:nonzero;"/></g><g><path d="M95.092,56.999c0.653,0.434 0.867,1.378 0.474,2.106c-0.39,0.728 -1.239,0.964 -1.892,0.529c-0.033,-0.02 -11.253,-7.752 -22.944,-2.73c-12.374,5.314 -18.316,7.512 -18.335,7.518c-0.728,0.247 -1.501,-0.207 -1.724,-1.019c-0.223,-0.812 0.185,-1.671 0.915,-1.918c0.015,-0.007 5.863,-2.172 18.152,-7.446c12.969,-5.572 25.32,2.939 25.353,2.961l0,-0.001l0.001,0Z" style="fill:#ecf0f1;fill-rule:nonzero;"/><path d="M95.092,65.305c0.653,0.434 0.867,1.38 0.474,2.108c-0.39,0.728 -1.239,0.964 -1.892,0.529c-0.033,-0.022 -11.256,-7.754 -22.944,-2.734c-12.374,5.314 -18.316,7.514 -18.335,7.518c-0.728,0.249 -1.501,-0.207 -1.724,-1.016c-0.223,-0.809 0.185,-1.671 0.915,-1.918c0.015,-0.007 5.86,-2.17 18.152,-7.448c12.969,-5.569 25.32,2.943 25.353,2.965l0,-0.004l0.001,0Z" style="fill:#ecf0f1;fill-rule:nonzero;"/><path d="M95.092,73.611c0.653,0.434 0.867,1.38 0.474,2.108c-0.39,0.728 -1.239,0.964 -1.892,0.529c-0.033,-0.02 -11.474,-7.754 -23.415,-2.727c-12.581,5.3 -18.655,7.505 -18.671,7.512c-0.728,0.249 -1.504,-0.207 -1.724,-1.016c-0.223,-0.809 0.185,-1.671 0.913,-1.92c0.015,-0.004 5.957,-2.165 18.51,-7.45c13.192,-5.558 25.772,2.946 25.805,2.968l0,-0.004Z" style="fill:#ecf0f1;fill-rule:nonzero;"/><path d="M95.068,81.903c0.659,0.421 0.889,1.36 0.509,2.095c-0.377,0.734 -1.224,0.988 -1.881,0.567c-0.035,-0.02 -11.659,-7.776 -23.775,-2.736c-12.777,5.309 -18.902,7.505 -18.917,7.51c-0.728,0.249 -1.501,-0.207 -1.724,-1.014c-0.223,-0.811 0.185,-1.673 0.913,-1.92c0.018,-0.004 6.07,-2.174 18.765,-7.45c13.355,-5.554 26.072,2.932 26.107,2.954l0.003,-0.006Z" style="fill:#ecf0f1;fill-rule:nonzero;"/><path d="M74.224,88.032c0.754,0.126 1.274,0.913 1.162,1.751c-0.112,0.84 -0.818,1.42 -1.572,1.292c-4.873,-0.827 -11.262,2.039 -16.422,4.355c-2.674,1.202 -5.042,2.267 -6.853,2.668c-0.747,0.165 -1.479,-0.375 -1.625,-1.208c-0.148,-0.833 0.337,-1.645 1.085,-1.81c1.579,-0.353 3.825,-1.36 6.365,-2.5c5.475,-2.457 12.255,-5.498 17.86,-4.548Z" style="fill:#ecf0f1;fill-rule:nonzero;"/><path d="M111.558,59.634c-0.653,0.434 -1.501,0.198 -1.892,-0.529c-0.39,-0.728 -0.179,-1.671 0.476,-2.106c0.033,-0.022 12.385,-8.533 25.353,-2.961c12.29,5.272 18.135,7.439 18.152,7.446c0.728,0.249 1.135,1.109 0.913,1.918c-0.225,0.811 -0.997,1.266 -1.724,1.019c-0.018,-0.007 -5.96,-2.205 -18.335,-7.518c-11.69,-5.02 -22.91,2.712 -22.944,2.73l0.001,0.001Z" style="fill:#ecf0f1;fill-rule:nonzero;"/><path d="M111.558,67.942c-0.653,0.434 -1.501,0.198 -1.892,-0.529c-0.39,-0.728 -0.179,-1.673 0.476,-2.108c0.033,-0.022 12.382,-8.533 25.353,-2.965c12.292,5.278 18.135,7.444 18.152,7.448c0.728,0.247 1.135,1.109 0.913,1.918c-0.225,0.811 -0.997,1.266 -1.724,1.016c-0.018,-0.004 -5.96,-2.205 -18.335,-7.518c-11.69,-5.018 -22.91,2.714 -22.944,2.734l0,0.004l0.001,0Z" style="fill:#ecf0f1;fill-rule:nonzero;"/><path d="M111.558,76.248c-0.653,0.434 -1.501,0.198 -1.892,-0.529c-0.39,-0.728 -0.179,-1.673 0.476,-2.108c0.033,-0.022 12.684,-8.522 25.949,-2.968c12.625,5.287 18.602,7.446 18.62,7.45c0.728,0.249 1.135,1.111 0.913,1.92c-0.225,0.809 -0.997,1.266 -1.724,1.016c-0.015,-0.007 -6.125,-2.209 -18.783,-7.512c-12.014,-5.029 -23.526,2.705 -23.559,2.727l0,0.004Z" style="fill:#ecf0f1;fill-rule:nonzero;"/><path d="M111.536,84.564c-0.657,0.421 -1.504,0.165 -1.879,-0.567c-0.379,-0.734 -0.152,-1.673 0.507,-2.095c0.035,-0.022 12.982,-8.352 26.548,-2.646c12.945,5.448 19.07,7.684 19.087,7.688c0.728,0.247 1.135,1.109 0.911,1.918c-0.223,0.811 -0.994,1.268 -1.722,1.019c-0.018,-0.007 -6.277,-2.286 -19.25,-7.748c-12.349,-5.197 -24.167,2.408 -24.202,2.428l0,0.003Z" style="fill:#ecf0f1;fill-rule:nonzero;"/><path d="M112.969,93.406c-0.692,0.348 -1.513,0.002 -1.826,-0.769c-0.313,-0.774 -0.002,-1.687 0.692,-2.035c15.061,-7.587 26.5,-1.7 28.579,-0.626l0.269,0.137c0.695,0.348 1.005,1.261 0.692,2.035c-0.313,0.772 -1.133,1.118 -1.826,0.769l-0.269,-0.134l0,-0.002l-0.013,-0.007c-1.876,-0.968 -12.36,-6.39 -26.297,0.635l-0.001,-0.003Z" style="fill:#ecf0f1;fill-rule:nonzero;"/><path d="M99.744,45.254l2.659,1.711l2.683,-1.72l0.022,67.303l-2.703,1.724l-2.639,-1.68l-0.02,-67.336l-0.002,-0.002Z" style="fill:#ecf0f1;fill-rule:nonzero;"/></g><path d="M340.007,130.705l69.512,0l-1.259,-10.021l-67.038,0l-1.215,10.021Z" style="fill:#f0a400;fill-rule:nonzero;"/><g><path d="M374.76,94.468l0,32.438c-19.156,-11.41 -25.402,2.82 -34.755,3.799l4.112,-32.742c9.512,0.256 16.984,-11.765 30.643,-3.492l0,-0.003Z" style="fill:#fff;fill-rule:nonzero;"/><path d="M374.76,94.468l0,32.438c19.156,-11.41 25.404,2.82 34.757,3.799l-4.112,-32.742c-9.512,0.256 -16.986,-11.765 -30.645,-3.492l0,-0.003Z" style="fill:#fff;fill-rule:nonzero;"/></g><g><path d="M370.84,99.306c0.348,0.209 0.463,0.664 0.254,1.014c-0.212,0.348 -0.666,0.463 -1.016,0.254c-0.015,-0.011 -6.039,-3.737 -12.312,-1.316c-6.641,2.56 -9.829,3.62 -9.838,3.623c-0.39,0.121 -0.807,-0.099 -0.926,-0.489c-0.119,-0.39 0.099,-0.807 0.492,-0.926c0.009,-0.004 3.144,-1.047 9.739,-3.589c6.961,-2.683 13.588,1.418 13.608,1.429l-0.001,0Z" style="fill:#ecf0f1;fill-rule:nonzero;"/><path d="M370.84,103.308c0.348,0.209 0.463,0.666 0.254,1.016c-0.212,0.351 -0.666,0.465 -1.016,0.254c-0.015,-0.009 -6.039,-3.735 -12.312,-1.316c-6.641,2.56 -9.829,3.618 -9.838,3.623c-0.39,0.121 -0.807,-0.099 -0.926,-0.489c-0.119,-0.39 0.099,-0.805 0.492,-0.926c0.009,0 3.144,-1.045 9.739,-3.587c6.962,-2.688 13.587,1.413 13.607,1.425Z" style="fill:#ecf0f1;fill-rule:nonzero;"/><path d="M370.84,107.311c0.348,0.209 0.463,0.666 0.254,1.014c-0.212,0.351 -0.666,0.463 -1.016,0.256c-0.015,-0.011 -6.156,-3.739 -12.563,-1.316c-6.751,2.555 -10.012,3.618 -10.021,3.62c-0.39,0.121 -0.805,-0.099 -0.926,-0.489c-0.117,-0.388 0.099,-0.807 0.489,-0.924c0.009,-0.004 3.197,-1.043 9.933,-3.592c7.08,-2.679 13.829,1.42 13.849,1.431l0.001,0Z" style="fill:#ecf0f1;fill-rule:nonzero;"/><path d="M370.827,111.307c0.355,0.203 0.476,0.655 0.271,1.01c-0.203,0.353 -0.655,0.474 -1.008,0.271c-0.02,-0.009 -6.257,-3.748 -12.759,-1.318c-6.857,2.56 -10.14,3.616 -10.151,3.62c-0.388,0.117 -0.805,-0.099 -0.926,-0.489c-0.117,-0.39 0.101,-0.807 0.489,-0.926c0.009,-0.002 3.257,-1.047 10.069,-3.589c7.168,-2.677 13.99,1.413 14.012,1.424l0.003,-0.003Z" style="fill:#ecf0f1;fill-rule:nonzero;"/><path d="M359.639,114.261c0.406,0.062 0.686,0.439 0.624,0.844c-0.062,0.403 -0.439,0.684 -0.844,0.622c-2.615,-0.399 -6.043,0.983 -8.811,2.099c-1.435,0.578 -2.705,1.094 -3.68,1.285c-0.401,0.079 -0.792,-0.181 -0.871,-0.584c-0.082,-0.399 0.181,-0.792 0.582,-0.871c0.847,-0.17 2.053,-0.655 3.418,-1.204c2.937,-1.183 6.575,-2.649 9.582,-2.191Z" style="fill:#ecf0f1;fill-rule:nonzero;"/><path d="M379.677,100.576c-0.353,0.209 -0.807,0.095 -1.016,-0.254c-0.207,-0.351 -0.095,-0.807 0.256,-1.014c0.018,-0.011 6.645,-4.112 13.606,-1.429c6.597,2.542 9.732,3.585 9.741,3.589c0.39,0.117 0.609,0.534 0.489,0.926c-0.119,0.388 -0.536,0.609 -0.926,0.489c-0.009,-0.002 -3.199,-1.063 -9.838,-3.623c-6.275,-2.421 -12.296,1.305 -12.312,1.316Z" style="fill:#ecf0f1;fill-rule:nonzero;"/><path d="M379.677,104.577c-0.353,0.212 -0.807,0.097 -1.016,-0.254c-0.207,-0.351 -0.095,-0.807 0.256,-1.016c0.018,-0.011 6.645,-4.112 13.606,-1.427c6.597,2.542 9.732,3.587 9.741,3.587c0.39,0.121 0.609,0.536 0.489,0.926c-0.119,0.39 -0.536,0.611 -0.926,0.489c-0.009,-0.004 -3.199,-1.063 -9.838,-3.623c-6.273,-2.419 -12.297,1.31 -12.312,1.318Z" style="fill:#ecf0f1;fill-rule:nonzero;"/><path d="M379.677,108.581c-0.353,0.207 -0.807,0.095 -1.016,-0.256c-0.207,-0.351 -0.095,-0.805 0.256,-1.014c0.018,-0.011 6.806,-4.11 13.924,-1.431c6.778,2.549 9.983,3.587 9.992,3.592c0.39,0.117 0.609,0.536 0.489,0.924c-0.121,0.39 -0.536,0.611 -0.926,0.489c-0.011,-0.002 -3.287,-1.065 -10.081,-3.62c-6.447,-2.425 -12.625,1.303 -12.64,1.316l0.002,0Z" style="fill:#ecf0f1;fill-rule:nonzero;"/><path d="M379.664,112.59c-0.353,0.201 -0.807,0.079 -1.01,-0.271c-0.201,-0.355 -0.079,-0.807 0.276,-1.01c0.018,-0.011 6.967,-4.024 14.245,-1.274c6.945,2.626 10.235,3.704 10.244,3.704c0.39,0.121 0.609,0.536 0.489,0.926c-0.121,0.39 -0.536,0.609 -0.926,0.489c-0.011,-0.004 -3.369,-1.102 -10.33,-3.733c-6.628,-2.505 -12.969,1.16 -12.986,1.169l-0.002,0Z" style="fill:#ecf0f1;fill-rule:nonzero;"/><path d="M380.433,116.852c-0.375,0.165 -0.814,0.002 -0.981,-0.37c-0.165,-0.373 -0.002,-0.811 0.37,-0.981c8.083,-3.658 14.221,-0.82 15.337,-0.302l0.146,0.064c0.37,0.168 0.538,0.606 0.37,0.979c-0.168,0.373 -0.606,0.54 -0.981,0.373l-0.143,-0.066l0,-0.002l-0.007,-0.002c-1.008,-0.467 -6.632,-3.08 -14.111,0.304l0,0.003Z" style="fill:#ecf0f1;fill-rule:nonzero;"/><path d="M373.336,93.646l1.427,0.822l1.44,-0.827l0.013,32.435l-1.453,0.829l-1.415,-0.809l-0.012,-32.45Z" style="fill:#ecf0f1;fill-rule:nonzero;"/></g></svg>