<?xml version="1.0" encoding="UTF-8" standalone="no"?><!DOCTYPE svg PUBLIC "-//W3C//DTD SVG 1.1//EN" "http://www.w3.org/Graphics/SVG/1.1/DTD/svg11.dtd"><svg width="100%" height="100%" viewBox="0 0 1601 488" version="1.1" xmlns="http://www.w3.org/2000/svg" xmlns:xlink="http://www.w3.org/1999/xlink" xml:space="preserve" xmlns:serif="http://www.serif.com/" style="fill-rule:evenodd;clip-rule:evenodd;stroke-miterlimit:1.41421;"><g><path d="M487.748,178.981c0.232,103.614 -34.28,197.819 -91.973,283.255l-1.062,1.574l-1.805,0.59c-98.471,32.239 -198.73,28.528 -297.814,0.06l-1.824,-0.525l-1.121,-1.533c-61.089,-83.689 -88.541,-180.187 -92.084,-283.218l-0.065,-1.898l1.112,-1.538c60.715,-83.961 144.007,-139.891 240.9,-175.098l1.786,-0.65l1.807,0.583c98.613,31.797 177.544,93.732 240.97,175.002l1.167,1.497l0.006,1.899Z" style="fill:#fff;"/><path d="M243.905,5.854c92.739,29.904 171.801,87.928 238.303,173.139c0.218,97.44 -30.533,190.564 -91.024,280.144c-92.603,30.317 -190.674,29.846 -294.561,0c-57.448,-78.704 -87.307,-172.118 -91.023,-280.144c57.098,-78.96 136.714,-136.223 238.305,-173.139Z" style="fill:#009ada;"/><path d="M243.958,384.032c4.887,-2.344 13.792,-4.688 18.716,-7.033c7.502,-3.75 12.783,-8.798 18.25,-14.771c4.281,0.115 6.162,-0.638 7.47,-0.552c0.785,0.05 1.363,0.406 2.129,1.434c5.721,7.655 31.697,16.878 54.519,15.572c15.115,-0.866 32.368,-9.521 37.914,-23.14c7.745,-5.619 10.437,-15.585 13.361,-24.263c4.517,-8.379 9.331,-12.241 9.848,-24.618c2.817,-5.149 5.167,-11.237 4.22,-23.915c25.037,-29.099 0.118,-61.06 -18.288,-87.22c10.552,22.389 18.058,58.279 7.033,64.711c-8.97,6.866 -24.929,4.099 -35.218,-0.638c-13.228,-6.093 -25.622,-16.026 -44.348,-15.761c-2.045,0.386 -4.374,0.71 -6.548,1.253c-4.153,1.036 -8.466,2.879 -12.649,7.519c-8.512,9.445 -4.624,19.938 -0.414,30.839c3.836,8.355 -1.876,14.066 -8.44,15.474c0.045,-11.841 -3.286,-24.738 -10.904,-36.227c20.31,-97.302 35.844,-135.401 46.776,-127.661c-11.427,-6.052 -23.371,-14.687 -38.797,-8.732c-5.956,-8.566 -11.133,-13.975 -28.367,-13.501c-2.226,-3.341 -9.864,-8.133 -16.263,-12.435c-6.399,4.302 -14.037,9.094 -16.263,12.435c-17.236,-0.474 -22.413,4.935 -28.367,13.501c-15.426,-5.955 -27.37,2.68 -38.798,8.732c10.933,-7.74 26.466,30.359 46.777,127.661c-7.62,11.489 -10.951,24.386 -10.904,36.227c-6.565,-1.408 -12.276,-7.119 -8.441,-15.474c4.209,-10.901 8.099,-21.394 -0.413,-30.839c-4.183,-4.64 -8.496,-6.483 -12.648,-7.519c-2.175,-0.543 -4.504,-0.867 -6.549,-1.253c-18.728,-0.265 -31.12,9.668 -44.348,15.761c-10.289,4.737 -26.248,7.504 -35.22,0.638c-11.024,-6.432 -3.517,-42.322 7.035,-64.711c-18.408,26.16 -43.325,58.121 -18.29,87.22c-0.945,12.678 1.403,18.766 4.222,23.915c0.517,12.377 5.331,16.239 9.847,24.618c2.923,8.678 5.615,18.644 13.36,24.263c5.548,13.619 22.801,22.274 37.916,23.14c22.821,1.306 48.797,-7.917 54.519,-15.572c2.045,-2.738 2.748,-0.695 9.599,-0.882c5.466,5.973 10.748,11.021 18.25,14.771c4.923,2.345 13.829,4.689 18.716,7.033Z" style="fill:#fff;"/><path d="M243.958,384.032c4.887,-2.344 13.792,-4.688 18.716,-7.033c7.502,-3.75 12.783,-8.798 18.25,-14.771c4.281,0.115 6.162,-0.638 7.47,-0.552c0.785,0.05 1.363,0.406 2.129,1.434c5.721,7.655 31.697,16.878 54.519,15.572c15.115,-0.866 32.368,-9.521 37.914,-23.14c7.745,-5.619 10.437,-15.585 13.361,-24.263c4.517,-8.379 9.331,-12.241 9.848,-24.618c2.817,-5.149 5.167,-11.237 4.22,-23.915c25.037,-29.099 0.118,-61.06 -18.288,-87.22c10.552,22.389 18.058,58.279 7.033,64.711c-8.97,6.866 -24.929,4.099 -35.218,-0.638c-13.228,-6.093 -25.622,-16.026 -44.348,-15.761c-2.045,0.386 -4.374,0.71 -6.548,1.253c-4.153,1.036 -8.466,2.879 -12.649,7.519c-8.512,9.445 -4.624,19.938 -0.414,30.839c3.836,8.355 -1.876,14.066 -8.44,15.474c0.045,-11.841 -3.286,-24.738 -10.904,-36.227c20.31,-97.302 35.844,-135.401 46.776,-127.661c-11.427,-6.052 -23.371,-14.687 -38.797,-8.732c-5.956,-8.566 -11.133,-13.975 -28.367,-13.501c-2.226,-3.341 -9.864,-8.133 -16.263,-12.435c-6.399,4.302 -14.037,9.094 -16.263,12.435c-17.236,-0.474 -22.413,4.935 -28.367,13.501c-15.426,-5.955 -27.37,2.68 -38.798,8.732c10.933,-7.74 26.466,30.359 46.777,127.661c-7.62,11.489 -10.951,24.386 -10.904,36.227c-6.565,-1.408 -12.276,-7.119 -8.441,-15.474c4.209,-10.901 8.099,-21.394 -0.413,-30.839c-4.183,-4.64 -8.496,-6.483 -12.648,-7.519c-2.175,-0.543 -4.504,-0.867 -6.549,-1.253c-18.728,-0.265 -31.12,9.668 -44.348,15.761c-10.289,4.737 -26.248,7.504 -35.22,0.638c-11.024,-6.432 -3.517,-42.322 7.035,-64.711c-18.408,26.16 -43.325,58.121 -18.29,87.22c-0.945,12.678 1.403,18.766 4.222,23.915c0.517,12.377 5.331,16.239 9.847,24.618c2.923,8.678 5.615,18.644 13.36,24.263c5.548,13.619 22.801,22.274 37.916,23.14c22.821,1.306 48.797,-7.917 54.519,-15.572c2.045,-2.738 2.748,-0.695 9.599,-0.882c5.466,5.973 10.748,11.021 18.25,14.771c4.923,2.345 13.829,4.689 18.716,7.033Z" style="fill:none;stroke:#000102;stroke-width:1.52px;"/><path d="M410.392,282.901c-21.121,7.42 -27.53,6.995 -33.467,6.32" style="fill:none;stroke:#000102;stroke-width:1.52px;"/><path d="M77.524,282.901c21.121,7.42 27.53,6.995 33.465,6.32" style="fill:none;stroke:#000102;stroke-width:1.52px;"/><path d="M408.317,301.706c-9.649,7.387 -23.097,11.186 -34.738,10.417" style="fill:none;stroke:#000102;stroke-width:1.52px;"/><path d="M79.599,301.706c9.649,7.387 23.095,11.186 34.737,10.417" style="fill:none;stroke:#000102;stroke-width:1.52px;"/><path d="M397.74,329.219c-7.982,5.618 -20.23,8.006 -32.233,6.6" style="fill:none;stroke:#000102;stroke-width:1.52px;"/><path d="M90.176,329.219c7.982,5.618 20.23,8.006 32.231,6.6" style="fill:none;stroke:#000102;stroke-width:1.52px;"/><path d="M385.896,352.706c-9.675,3.36 -20.605,5.342 -31.286,3.685" style="fill:none;stroke:#000102;stroke-width:1.52px;"/><path d="M102.02,352.706c9.675,3.36 20.605,5.342 31.286,3.685" style="fill:none;stroke:#000102;stroke-width:1.52px;"/><path d="M339.447,247.416c-29.049,-1.428 -30.4,15.538 -21.292,37.207c9.793,17.662 8.714,26.627 8.274,36.105c-4.85,25.998 -21.593,33.061 -37.583,40.836" style="fill:none;stroke:#000102;stroke-width:1.52px;"/><path d="M148.469,247.416c29.049,-1.428 30.398,15.538 21.292,37.207c-9.793,17.662 -8.714,26.627 -8.274,36.105c4.85,25.998 21.772,33.061 37.762,40.836" style="fill:none;stroke:#000102;stroke-width:1.52px;"/><path d="M243.958,237.238c-5.694,-13.409 -15.82,-15.557 -14.905,-28.807c0.661,-9.577 7.8,-15.444 14.905,-23.092c7.104,7.648 14.244,13.515 14.905,23.092c0.915,13.25 -9.212,15.398 -14.905,28.807Z" style="fill:none;stroke:#000102;stroke-width:1.52px;"/><path d="M243.958,330.929c5.98,0.249 9.135,3.712 9.135,8.977c11.076,-5.038 16.693,-11.946 17.537,-21.454c2.388,-26.894 -26.768,-43.121 -26.672,-70.309c0.096,27.188 -29.06,43.415 -26.674,70.309c0.844,9.508 6.463,16.416 17.539,21.454c0,-5.265 3.155,-8.728 9.135,-8.977Z" style="fill:#ee2c2f;"/><path d="M243.958,330.929c5.98,0.249 9.135,3.712 9.135,8.977c11.076,-5.038 16.693,-11.946 17.537,-21.454c2.388,-26.894 -26.768,-43.121 -26.672,-70.309c0.096,27.188 -29.06,43.415 -26.674,70.309c0.844,9.508 6.463,16.416 17.539,21.454c0,-5.265 3.155,-8.728 9.135,-8.977Z" style="fill:none;stroke:#000102;stroke-width:1.52px;"/><path d="M243.958,411.337c-14.115,-10.082 -33.028,-15.562 -50.603,-11.428c-23.346,5.495 -20.893,20.524 -51.799,24.24c-0.502,-7.523 -0.627,-16.172 -1.129,-23.694c23.042,-1.253 24.228,-14.082 46.258,-19.18c27.406,-5.252 43.038,2.245 57.273,10.155c14.233,-7.91 29.866,-15.407 57.273,-10.155c22.028,5.098 23.214,17.927 46.258,19.18c-0.502,7.522 -0.629,16.171 -1.129,23.694c-30.906,-3.716 -28.453,-18.745 -51.799,-24.24c-17.576,-4.134 -36.488,1.346 -50.603,11.428Z" style="fill:#fff;"/><path d="M243.958,411.337c-14.115,-10.082 -33.028,-15.562 -50.603,-11.428c-23.346,5.495 -20.893,20.524 -51.799,24.24c-0.502,-7.523 -0.627,-16.172 -1.129,-23.694c23.042,-1.253 24.228,-14.082 46.258,-19.18c27.406,-5.252 43.038,2.245 57.273,10.155c14.233,-7.91 29.866,-15.407 57.273,-10.155c22.028,5.098 23.214,17.927 46.258,19.18c-0.502,7.522 -0.629,16.171 -1.129,23.694c-30.906,-3.716 -28.453,-18.745 -51.799,-24.24c-17.576,-4.134 -36.488,1.346 -50.603,11.428Z" style="fill:none;stroke:#000102;stroke-width:1.52px;"/><path d="M346.36,423.96c3.008,4.199 5.265,6.707 8.274,11.095c-12.411,-0.879 -20.684,0.876 -28.958,-4.514c-12.164,-5.711 -21.383,-14.905 -34.434,-18.088c-18.132,-4.423 -32.581,2.141 -47.284,12.404c-14.704,-10.263 -29.152,-16.827 -47.284,-12.404c-13.051,3.183 -22.272,12.377 -34.434,18.088c-8.274,5.39 -16.549,3.635 -28.958,4.514c3.008,-4.388 5.264,-6.896 8.272,-11.095c30.908,-3.527 28.455,-18.556 51.801,-24.049c17.575,-4.136 36.488,1.344 50.603,11.426c14.115,-10.082 33.027,-15.562 50.603,-11.426c23.346,5.493 20.893,20.522 51.799,24.049Z" style="fill:#fff;"/><path d="M346.36,423.96c3.008,4.199 5.265,6.707 8.274,11.095c-12.411,-0.879 -20.684,0.876 -28.958,-4.514c-12.164,-5.711 -21.383,-14.905 -34.434,-18.088c-18.132,-4.423 -32.581,2.141 -47.284,12.404c-14.704,-10.263 -29.152,-16.827 -47.284,-12.404c-13.051,3.183 -22.272,12.377 -34.434,18.088c-8.274,5.39 -16.549,3.635 -28.958,4.514c3.008,-4.388 5.264,-6.896 8.272,-11.095c30.908,-3.527 28.455,-18.556 51.801,-24.049c17.575,-4.136 36.488,1.344 50.603,11.426c14.115,-10.082 33.027,-15.562 50.603,-11.426c23.346,5.493 20.893,20.522 51.799,24.049Z" style="fill:none;stroke:#000102;stroke-width:1.52px;"/><path d="M260.065,112.311l-2.338,72.46" style="fill:none;stroke:#000102;stroke-width:1.52px;"/><path d="M227.85,112.311l2.337,72.46" style="fill:none;stroke:#000102;stroke-width:1.52px;"/><path d="M289.282,125.167l-15.192,73.63" style="fill:none;stroke:#000102;stroke-width:1.52px;"/><path d="M198.632,125.167l15.194,73.63" style="fill:none;stroke:#000102;stroke-width:1.52px;"/><path d="M257.858,215.34c0.973,13.439 1.232,32.544 2.207,45.985c0.553,15.574 20.238,22.784 30.386,38.568" style="fill:none;stroke:#000102;stroke-width:1.52px;"/><path d="M230.058,215.34c-0.974,13.439 -1.232,32.544 -2.208,45.985c-0.552,15.574 -20.238,22.784 -30.387,38.568" style="fill:none;stroke:#000102;stroke-width:1.52px;"/><path d="M258.312,244.962c9.738,5.842 17.139,10.711 22.206,18.116" style="fill:none;stroke:#000102;stroke-width:1.52px;"/><path d="M229.604,244.962c-9.738,5.842 -17.141,10.711 -22.206,18.116" style="fill:none;stroke:#000102;stroke-width:1.52px;"/><path d="M245.455,249.505c-11.492,25.331 11.494,55.2 -4.673,72.593" style="fill:none;stroke:#000102;stroke-width:1.52px;"/><path d="M243.958,345.473c2.289,0.21 4.637,0.799 6.968,1.009c-0.725,5.081 -0.43,10.541 0.889,15.624c1.669,0.665 3.337,1.328 5.006,1.994c-2.172,2.413 -3.198,5.586 -5.371,8.001c-2.172,2.413 -5.495,4.07 -7.492,6.485c-1.997,-2.415 -5.321,-4.072 -7.494,-6.485c-2.172,-2.415 -3.197,-5.588 -5.371,-8.001c1.671,-0.666 3.339,-1.329 5.007,-1.994c1.32,-5.083 1.615,-10.543 0.888,-15.624c2.333,-0.21 4.679,-0.799 6.97,-1.009Z" style="fill:none;stroke:#000102;stroke-width:1.52px;"/><path d="M99.169,184.993l-21.86,-10.661l-3.255,6.675l-4.455,-2.17l8.724,-17.89l4.456,2.173l-3.251,6.662l21.86,10.662l-2.219,4.549Zm-17.676,-30.732l2.827,-4.192l13.144,8.866c2.085,1.407 3.477,2.268 4.161,2.581c1.116,0.494 2.202,0.6 3.255,0.332c1.061,-0.268 1.984,-0.99 2.773,-2.16c0.801,-1.19 1.127,-2.28 0.964,-3.268c-0.158,-0.987 -0.615,-1.82 -1.358,-2.499c-0.746,-0.686 -2.079,-1.669 -4.001,-2.965l-13.427,-9.056l2.827,-4.192l12.748,8.599c2.917,1.966 4.899,3.465 5.949,4.505c1.05,1.038 1.781,2.136 2.2,3.305c0.414,1.165 0.526,2.429 0.332,3.776c-0.196,1.353 -0.853,2.85 -1.963,4.495c-1.337,1.98 -2.616,3.305 -3.845,3.968c-1.227,0.662 -2.466,1.001 -3.721,1.02c-1.255,0.02 -2.417,-0.195 -3.482,-0.64c-1.576,-0.661 -3.718,-1.909 -6.437,-3.743l-12.946,-8.732Zm42.06,-8.891l-18.073,-16.275l-4.97,5.521l-3.682,-3.316l13.315,-14.788l3.684,3.313l-4.959,5.509l18.073,16.274l-3.388,3.762Zm20.344,-20.902l-22.392,-19.783l4.132,-3.115l15.118,13.786l-8.446,-18.813l4.802,-3.618l15.813,13.686l-9.237,-18.642l4.065,-3.064l12.762,27.04l-4.285,3.229l-17.153,-14.479l9.199,20.473l-4.378,3.3Zm10.93,-43.376l4.544,-2.215l6.949,14.249c1.102,2.262 1.877,3.704 2.314,4.317c0.72,0.985 1.609,1.619 2.654,1.915c1.052,0.297 2.212,0.132 3.48,-0.485c1.289,-0.629 2.114,-1.411 2.468,-2.349c0.356,-0.932 0.378,-1.884 0.074,-2.841c-0.304,-0.968 -0.966,-2.488 -1.982,-4.571l-7.1,-14.556l4.545,-2.216l6.741,13.821c1.541,3.161 2.509,5.45 2.899,6.875c0.39,1.425 0.473,2.742 0.253,3.964c-0.225,1.217 -0.761,2.365 -1.602,3.436c-0.846,1.072 -2.164,2.042 -3.945,2.911c-2.148,1.047 -3.92,1.554 -5.316,1.515c-1.394,-0.042 -2.636,-0.368 -3.733,-0.978c-1.095,-0.611 -1.995,-1.377 -2.695,-2.295c-1.035,-1.361 -2.265,-3.513 -3.702,-6.461l-6.846,-14.036Zm35.84,15.626l-8.558,-27.997l10.182,-3.113c2.559,-0.782 4.495,-1.097 5.808,-0.949c1.313,0.148 2.518,0.756 3.608,1.827c1.091,1.078 1.885,2.437 2.392,4.094c0.641,2.099 0.643,4.002 0.007,5.691c-0.636,1.685 -1.956,3.037 -3.95,4.031c1.267,0.397 2.371,0.914 3.313,1.56c0.941,0.647 2.316,1.879 4.138,3.703l4.598,4.568l-5.784,1.767l-5.359,-5.026c-1.909,-1.796 -3.176,-2.906 -3.807,-3.332c-0.631,-0.428 -1.232,-0.664 -1.812,-0.722c-0.577,-0.052 -1.418,0.091 -2.533,0.431l-0.975,0.299l3.572,11.688l-4.84,1.48Zm-0.1,-17.64l3.575,-1.091c2.319,-0.71 3.737,-1.265 4.247,-1.671c0.504,-0.404 0.834,-0.939 0.991,-1.6c0.152,-0.659 0.108,-1.408 -0.15,-2.248c-0.289,-0.946 -0.737,-1.637 -1.344,-2.084c-0.607,-0.448 -1.327,-0.629 -2.161,-0.544c-0.409,0.06 -1.595,0.388 -3.558,0.988l-3.771,1.153l2.171,7.097Zm24.576,11.019l-5.085,-28.829l4.98,-0.878l5.082,28.831l-4.977,0.876Zm19.295,-2.81l0.512,-29.271l5.06,0.088l-0.199,11.517l9.905,0.172l0.201,-11.516l5.055,0.088l-0.512,29.271l-5.055,-0.089l0.225,-12.799l-9.907,-0.173l-0.224,12.8l-5.061,-0.088Zm47.461,4.728l-5.422,-0.957l-1,-6.93l-9.859,-1.74l-3.188,6.193l-5.284,-0.931l14.692,-27.137l5.265,0.93l4.796,30.572Zm-7.161,-13.021l-1.514,-11.301l-5.217,10.113l6.731,1.188Zm9.765,14.042l10.011,-27.509l4.627,1.683l2.946,21.877l6.687,-18.371l4.417,1.607l-10.012,27.511l-4.775,-1.738l-2.955,-21.393l-6.529,17.94l-4.417,-1.607Zm37.835,-16.677l8.085,4.481c1.821,1.009 3.118,1.94 3.895,2.8c1.04,1.153 1.707,2.55 1.992,4.19c0.294,1.635 0.225,3.403 -0.201,5.304c-0.435,1.903 -1.311,4.05 -2.643,6.453c-1.167,2.103 -2.398,3.798 -3.694,5.075c-1.576,1.557 -3.194,2.633 -4.85,3.218c-1.252,0.454 -2.663,0.558 -4.241,0.325c-1.174,-0.177 -2.58,-0.722 -4.218,-1.63l-8.317,-4.611l14.192,-25.605Zm2.02,6.786l-9.399,16.954l3.301,1.83c1.235,0.684 2.17,1.1 2.813,1.24c0.83,0.187 1.621,0.165 2.374,-0.073c0.751,-0.237 1.593,-0.854 2.528,-1.832c0.93,-0.98 1.953,-2.465 3.049,-4.443c1.097,-1.978 1.784,-3.578 2.078,-4.804c0.286,-1.227 0.327,-2.288 0.119,-3.175c-0.21,-0.895 -0.674,-1.674 -1.384,-2.341c-0.524,-0.508 -1.689,-1.256 -3.496,-2.256l-1.983,-1.1Zm23.415,45.395l-4.395,-3.312l2.255,-6.63l-7.996,-6.024l-5.651,4.07l-4.285,-3.23l25.409,-17.507l4.271,3.217l-9.608,29.416Zm-0.468,-14.852l3.782,-10.755l-9.241,6.641l5.459,4.114Zm4.237,19.785l8.866,-8.562l5.821,-18.374l4.12,4.266l-4.235,12.285l12.341,-3.89l4.046,4.19l-18.62,5.181l-8.836,8.532l-3.503,-3.628Zm23.658,27.284l-3.465,-4.278l3.795,-5.886l-6.302,-7.781l-6.469,2.582l-3.376,-4.17l28.89,-10.842l3.365,4.156l-16.438,26.219Zm3.138,-14.524l6.272,-9.522l-10.572,4.209l4.3,5.313Zm-1.916,17.322l25.848,-13.744l2.311,4.345l-12.448,18.23l17.26,-9.177l2.207,4.149l-25.849,13.746l-2.384,-4.486l12.119,-17.876l-16.857,8.964l-2.207,-4.151Zm11.337,21.995l26.949,-11.44l1.974,4.654l-26.948,11.439l-1.975,-4.653Z" style="fill:#fff;"/></g><g transform="matrix(0.24,0,0,0.24,-139.565,-54.4651)"><text x="2871.44px" y="1029.29px" style="font-family:'ProductSans-Regular', 'Product Sans', sans-serif;font-size:600px;fill:#fff;">Din<tspan x="3740.24px 4043.24px " y="1029.29px 1029.29px ">as</tspan> P<tspan x="4765.64px " y="1029.29px ">e</tspan>ndi<tspan x="5887.04px " y="1029.29px ">d</tspan>ik<tspan x="6648.44px " y="1029.29px ">a</tspan>n</text><text x="2871.44px" y="1679.29px" style="font-family:'ProductSans-Bold', 'Product Sans', sans-serif;font-weight:700;font-size:600px;fill:#fff;">K<tspan x="3260.84px 3597.44px 3832.04px " y="1679.29px 1679.29px 1679.29px ">ota</tspan> M<tspan x="4790.24px 5111.24px 5254.04px 5575.04px 5916.44px " y="1679.29px 1679.29px 1679.29px 1679.29px 1679.29px ">alang</tspan></text></g></svg>