<?xml version="1.0" encoding="UTF-8" standalone="no"?><!DOCTYPE svg PUBLIC "-//W3C//DTD SVG 1.1//EN" "http://www.w3.org/Graphics/SVG/1.1/DTD/svg11.dtd"><svg width="100%" height="100%" viewBox="0 0 512 512" version="1.1" xmlns="http://www.w3.org/2000/svg" xmlns:xlink="http://www.w3.org/1999/xlink" xml:space="preserve" xmlns:serif="http://www.serif.com/" style="fill-rule:evenodd;clip-rule:evenodd;stroke-linejoin:round;stroke-miterlimit:1.41421;"><path d="M255.982,9.191c136.744,0 247.597,110.853 247.597,247.597c0,136.744 -110.853,247.597 -247.597,247.597c-136.744,0 -247.597,-110.853 -247.597,-247.597c0,-136.744 110.853,-247.597 247.597,-247.597Z" style="fill:#3f8a94;fill-rule:nonzero;"/><path d="M404.336,358.693l71.899,0c-0.331,25.816 -0.933,76.996 -35.952,78.126c-19.772,0 -35.951,-16.176 -35.951,-35.947l0,-42.178l0.004,0l0,-0.001Z" style="fill:#39737a;fill-rule:nonzero;"/><path d="M105.462,89.167l0,311.705c0,19.727 16.176,35.947 35.951,35.947l298.88,0c-19.772,0 -35.952,-16.176 -35.952,-35.947l0,-313.363l-298.879,1.658Z" style="fill:#ff5b61;fill-rule:nonzero;"/><path d="M119.006,102.64l0,298.232c0,12.272 10.131,22.403 22.403,22.403l254.766,0c-3.439,-6.732 -5.383,-14.348 -5.383,-22.403l0,-299.742l-271.786,1.51Z" style="fill:#fff;fill-rule:nonzero;"/><rect x="200.705" y="238.643" width="109.973" height="10.355" style="fill:#3f8a94;"/><path d="M141.185,260.567l229.019,0l0,4.476l-229.019,0l0,-4.476Zm0,48.058l157.003,0l0,4.476l-157.003,0l0,-4.476Zm0,-12.012l229.019,0l0,4.476l-229.019,0l0,-4.476Zm0,-12.017l229.019,0l0,4.476l-229.019,0l0,-4.476Zm0,-12.012l229.019,0l0,4.476l-229.019,0l0,-4.476Z" style="fill:#c3cccf;fill-rule:nonzero;"/><g><rect x="303.298" y="330.144" width="58.064" height="5.517" style="fill:#3f8a94;"/><path d="M174.273,228.596l0,-9.685l-11.615,0l11.615,9.685Z" style="fill:#34555a;fill-rule:nonzero;"/><path d="M337.115,218.911l0,9.685l11.618,-9.685l-11.618,0Z" style="fill:#34555a;fill-rule:nonzero;"/><path d="M348.734,218.911l-11.618,9.685l46.467,0l-17.427,-19.375l17.427,-19.378l-34.849,0l0,29.068Z" style="fill:#396a71;fill-rule:nonzero;"/></g><path d="M337.115,218.911l11.619,0l0,-29.068l0,-9.684l-186.075,0l0,38.752l174.456,0Z" style="fill:#3f8a94;fill-rule:nonzero;"/><path d="M162.658,218.911l0,-29.068l-34.853,0l17.427,19.378l-17.427,19.375l46.467,0l-11.614,-9.685Z" style="fill:#396a71;fill-rule:nonzero;"/><path d="M199.214,203.531c0.157,0 0.295,0.058 0.416,0.179l1.126,1.224c-0.626,0.773 -1.389,1.367 -2.305,1.778c-0.911,0.411 -2.01,0.621 -3.288,0.621c-1.143,0 -2.171,-0.197 -3.082,-0.586c-0.911,-0.392 -1.694,-0.933 -2.337,-1.63c-0.648,-0.698 -1.139,-1.528 -1.482,-2.489c-0.345,-0.965 -0.519,-2.019 -0.519,-3.162c0,-1.157 0.183,-2.221 0.554,-3.181c0.367,-0.966 0.889,-1.792 1.559,-2.484c0.671,-0.693 1.471,-1.237 2.399,-1.626c0.929,-0.384 1.961,-0.576 3.087,-0.576c1.121,0 2.117,0.182 2.989,0.554c0.871,0.37 1.608,0.853 2.22,1.447l-0.955,1.33c-0.058,0.086 -0.125,0.161 -0.215,0.224c-0.089,0.067 -0.215,0.094 -0.37,0.094c-0.108,0 -0.215,-0.031 -0.331,-0.089c-0.111,-0.063 -0.237,-0.135 -0.37,-0.224c-0.134,-0.089 -0.291,-0.182 -0.465,-0.29c-0.179,-0.107 -0.384,-0.205 -0.616,-0.295c-0.237,-0.089 -0.505,-0.165 -0.813,-0.228c-0.309,-0.058 -0.67,-0.089 -1.073,-0.089c-0.687,0 -1.318,0.125 -1.89,0.366c-0.571,0.246 -1.067,0.599 -1.474,1.068c-0.411,0.465 -0.732,1.032 -0.96,1.702c-0.228,0.671 -0.34,1.435 -0.34,2.297c0,0.861 0.125,1.634 0.371,2.309c0.241,0.674 0.572,1.242 0.991,1.702c0.42,0.461 0.911,0.814 1.479,1.059c0.568,0.246 1.179,0.371 1.832,0.371c0.393,0 0.746,-0.022 1.063,-0.063c0.317,-0.041 0.607,-0.111 0.875,-0.201c0.264,-0.094 0.519,-0.215 0.755,-0.358c0.237,-0.147 0.474,-0.322 0.707,-0.536c0.071,-0.067 0.147,-0.116 0.223,-0.156c0.076,-0.041 0.16,-0.059 0.246,-0.059l-0.007,-0.003Zm6.388,-9.488l0,4.271l5.387,0l0,2.202l-5.387,0l0,4.355l6.835,0l0,2.287l-9.707,0l0,-15.393l9.707,0l0,2.279l-6.835,0l0,-0.001Zm14.022,5.047c0.541,0 1.01,-0.071 1.412,-0.205c0.403,-0.134 0.732,-0.322 0.988,-0.558c0.259,-0.237 0.45,-0.518 0.58,-0.844c0.13,-0.326 0.192,-0.684 0.192,-1.077c0,-0.781 -0.254,-1.38 -0.772,-1.8c-0.514,-0.419 -1.3,-0.629 -2.359,-0.629l-1.832,0l0,5.11l1.791,0l0,0.003Zm7.366,8.068l-2.586,0c-0.491,0 -0.844,-0.193 -1.063,-0.572l-3.239,-4.932c-0.121,-0.183 -0.251,-0.317 -0.398,-0.392c-0.147,-0.077 -0.361,-0.116 -0.648,-0.116l-1.224,0l0,6.012l-2.864,0l0,-15.393l4.695,0c1.041,0 1.939,0.107 2.69,0.322c0.75,0.219 1.362,0.522 1.84,0.916c0.478,0.389 0.831,0.853 1.059,1.398c0.228,0.541 0.34,1.144 0.34,1.796c0,0.519 -0.077,1.01 -0.229,1.471c-0.151,0.46 -0.37,0.88 -0.661,1.255c-0.286,0.375 -0.643,0.706 -1.063,0.991c-0.42,0.282 -0.907,0.505 -1.447,0.671c0.183,0.102 0.358,0.232 0.51,0.375c0.156,0.147 0.299,0.322 0.424,0.518l3.855,5.682l0.009,0l0,-0.002Zm12.017,-13.04l0,-2.349l-12.146,0l0,2.349l4.641,0l0,13.04l2.864,0l0,-13.04l4.641,0Zm4.9,13.04l-2.876,0l0,-15.394l2.876,0l0,15.394Zm6.313,-13.115l0,4.556l5.767,0l0,2.291l-5.767,0l0,6.268l-2.877,0l0,-15.394l9.708,0l0,2.279l-6.835,0l0.004,0Zm12.052,13.115l-2.873,0l0,-15.394l2.873,0l0,15.394Zm14.009,-3.627c0.157,0 0.295,0.058 0.416,0.179l1.126,1.224c-0.626,0.773 -1.389,1.367 -2.305,1.778c-0.911,0.411 -2.01,0.621 -3.283,0.621c-1.144,0 -2.172,-0.197 -3.083,-0.586c-0.911,-0.392 -1.692,-0.933 -2.336,-1.63c-0.648,-0.698 -1.14,-1.528 -1.483,-2.489c-0.344,-0.965 -0.519,-2.019 -0.519,-3.162c0,-1.157 0.183,-2.221 0.555,-3.181c0.366,-0.966 0.888,-1.792 1.559,-2.484c0.67,-0.693 1.47,-1.237 2.398,-1.626c0.93,-0.384 1.962,-0.576 3.088,-0.576c1.121,0 2.117,0.182 2.988,0.554c0.872,0.37 1.609,0.853 2.221,1.447l-0.956,1.33c-0.058,0.086 -0.125,0.161 -0.214,0.224c-0.089,0.067 -0.21,0.094 -0.371,0.094c-0.107,0 -0.215,-0.031 -0.331,-0.089c-0.111,-0.063 -0.237,-0.135 -0.37,-0.224c-0.135,-0.089 -0.29,-0.182 -0.464,-0.29c-0.179,-0.107 -0.384,-0.205 -0.616,-0.295c-0.233,-0.09 -0.505,-0.165 -0.814,-0.228c-0.308,-0.058 -0.67,-0.089 -1.072,-0.089c-0.688,0 -1.319,0.125 -1.89,0.366c-0.572,0.246 -1.063,0.599 -1.474,1.068c-0.411,0.465 -0.732,1.032 -0.961,1.702c-0.228,0.671 -0.339,1.435 -0.339,2.297c0,0.861 0.125,1.634 0.37,2.309c0.241,0.674 0.572,1.242 0.992,1.702c0.419,0.461 0.911,0.814 1.478,1.059c0.568,0.246 1.179,0.371 1.832,0.371c0.393,0 0.746,-0.022 1.063,-0.063c0.317,-0.041 0.608,-0.111 0.872,-0.201c0.263,-0.094 0.518,-0.215 0.755,-0.358c0.237,-0.147 0.474,-0.322 0.706,-0.536c0.072,-0.067 0.147,-0.116 0.223,-0.156c0.077,-0.041 0.161,-0.059 0.246,-0.059l-0.007,-0.003Zm11.646,-2.185l-1.876,-5.12c-0.094,-0.228 -0.188,-0.496 -0.287,-0.808c-0.098,-0.312 -0.201,-0.648 -0.298,-1.014c-0.094,0.362 -0.188,0.702 -0.287,1.019c-0.098,0.312 -0.196,0.59 -0.286,0.826l-1.863,5.102l4.896,0l0,-0.005l0.001,0Zm5.056,5.812l-2.215,0c-0.246,0 -0.447,-0.063 -0.608,-0.188c-0.156,-0.125 -0.272,-0.277 -0.353,-0.46l-1.148,-3.141l-6.379,0l-1.148,3.141c-0.058,0.165 -0.171,0.312 -0.331,0.446c-0.165,0.135 -0.367,0.202 -0.607,0.202l-2.239,0l6.058,-15.394l2.917,0l6.049,15.394l0.004,0Zm10.851,-13.04l0,-2.349l-12.146,0l0,2.349l4.642,0l0,13.04l2.868,0l0,-13.04l4.641,0l-0.005,0Zm4.896,-0.075l0,4.271l5.387,0l0,2.202l-5.387,0l0,4.355l6.835,0l0,2.287l-9.707,0l0,-15.393l9.707,0l0,2.279l-6.835,0l0,-0.001Z" style="fill:#fff;fill-rule:nonzero;"/><path d="M323.388,402.614l17.887,0l0,49.443l-9.046,-8.43l-8.841,8.43l0,-49.443Z" style="fill:#fbb429;fill-rule:nonzero;"/><path d="M332.33,359.26c2.497,0 4.529,2.015 4.556,4.507l0.389,0.077c0.979,-2.291 3.627,-3.377 5.937,-2.417c2.309,0.955 3.413,3.591 2.484,5.905l0.33,0.219c1.783,-1.747 4.642,-1.733 6.411,0.036c1.769,1.764 1.777,4.628 0.031,6.41l0.218,0.331c2.315,-0.933 4.95,0.174 5.911,2.484c0.955,2.309 -0.13,4.954 -2.421,5.932l0.076,0.389c2.493,0.027 4.507,2.059 4.507,4.557c0,2.502 -2.014,4.529 -4.507,4.556l-0.076,0.389c2.291,0.979 3.377,3.623 2.421,5.932c-0.956,2.31 -3.592,3.414 -5.906,2.484l-0.218,0.331c1.746,1.782 1.733,4.641 -0.036,6.41c-1.764,1.769 -4.628,1.778 -6.406,0.036l-0.331,0.219c0.934,2.314 -0.174,4.954 -2.483,5.91c-2.31,0.956 -4.954,-0.125 -5.933,-2.417l-0.389,0.077c-0.027,2.492 -2.059,4.507 -4.556,4.507c-2.502,0 -4.529,-2.015 -4.557,-4.507l-0.388,-0.077c-0.979,2.291 -3.623,3.373 -5.933,2.417c-2.31,-0.955 -3.413,-3.596 -2.484,-5.91l-0.33,-0.219c-1.778,1.747 -4.642,1.733 -6.411,-0.036c-1.769,-1.769 -1.778,-4.628 -0.036,-6.41l-0.218,-0.331c-2.315,0.933 -4.95,-0.174 -5.911,-2.484c-0.955,-2.309 0.125,-4.953 2.421,-5.932l-0.076,-0.389c-2.493,-0.027 -4.507,-2.055 -4.507,-4.556c0,-2.498 2.014,-4.53 4.507,-4.557l0.076,-0.389c-2.291,-0.978 -3.377,-3.623 -2.421,-5.932c0.956,-2.31 3.591,-3.413 5.911,-2.484l0.218,-0.331c-1.746,-1.782 -1.733,-4.641 0.036,-6.41c1.769,-1.769 4.628,-1.778 6.406,-0.036l0.33,-0.219c-0.929,-2.314 0.175,-4.95 2.484,-5.91c2.31,-0.955 4.954,0.125 5.933,2.421l0.389,-0.076c0.027,-2.493 2.055,-4.508 4.556,-4.508l-0.004,0l0,0.001Z" style="fill:#ff5b61;fill-rule:nonzero;"/><path d="M332.33,366.386c11.767,0 21.304,9.537 21.304,21.299c0,11.766 -9.537,21.304 -21.304,21.304c-11.767,0 -21.304,-9.538 -21.304,-21.304c0.001,-11.767 9.538,-21.299 21.304,-21.299Z" style="fill:#fff;fill-rule:nonzero;"/></svg>