<?xml version="1.0" encoding="UTF-8" standalone="no"?><!DOCTYPE svg PUBLIC "-//W3C//DTD SVG 1.1//EN" "http://www.w3.org/Graphics/SVG/1.1/DTD/svg11.dtd"><svg width="100%" height="100%" viewBox="0 0 512 512" version="1.1" xmlns="http://www.w3.org/2000/svg" xmlns:xlink="http://www.w3.org/1999/xlink" xml:space="preserve" xmlns:serif="http://www.serif.com/" style="fill-rule:evenodd;clip-rule:evenodd;stroke-linejoin:round;stroke-miterlimit:1.41421;"><path d="M257.33,9.607c136.813,0 247.722,110.909 247.722,247.723c0,136.813 -110.909,247.722 -247.722,247.722c-136.814,0 -247.723,-110.909 -247.723,-247.722c0,-136.814 110.909,-247.723 247.723,-247.723Z" style="fill:#fafafa;fill-rule:nonzero;stroke:#277ab1;stroke-width:7px;"/><path d="M405.759,359.286l71.935,0c-0.331,25.829 -0.934,77.035 -35.97,78.166c-19.782,0 -35.97,-16.184 -35.97,-35.965l0,-42.2l0.005,0l0,-0.001Z" style="fill:#e7e7e7;fill-rule:nonzero;"/><path d="M106.733,89.624l0,311.863c0,19.736 16.184,35.965 35.97,35.965l299.031,0c-19.782,0 -35.97,-16.184 -35.97,-35.965l0,-313.522l-299.031,1.659Z" style="fill:#ff5b61;fill-rule:nonzero;"/><path d="M120.284,103.103l0,298.384c0,12.277 10.136,22.414 22.414,22.414l254.896,0c-3.441,-6.735 -5.386,-14.356 -5.386,-22.414l0,-299.894l-271.924,1.51Z" style="fill:#fff;fill-rule:nonzero;"/><rect x="202.025" y="239.175" width="110.028" height="10.36" style="fill:#279ae6;fill-rule:nonzero;"/><path d="M142.475,261.11l229.134,0l0,4.479l-229.134,0l0,-4.479Zm0,48.083l157.082,0l0,4.478l-157.082,0l0,-4.478Zm0,-12.019l229.134,0l0,4.479l-229.134,0l0,-4.479Zm0,-12.022l229.134,0l0,4.478l-229.134,0l0,-4.478Zm0,-12.018l229.134,0l0,4.478l-229.134,0l0,-4.478Z" style="fill:#c3cccf;fill-rule:nonzero;"/><g><rect x="304.67" y="330.722" width="58.094" height="5.52" style="fill:#279ae6;fill-rule:nonzero;"/><path d="M175.579,229.123l0,-9.69l-11.62,0l11.62,9.69Z" style="fill:#1580c2;fill-rule:nonzero;"/><path d="M338.503,219.433l0,9.69l11.625,-9.69l-11.625,0Z" style="fill:#1580c2;fill-rule:nonzero;"/><path d="M350.129,219.433l-11.625,9.69l46.491,0l-17.436,-19.384l17.436,-19.388l-34.866,0l0,29.082Z" style="fill:#1b90d9;fill-rule:nonzero;"/></g><path d="M338.503,219.433l11.626,0l0,-29.082l0,-9.689l-186.169,0l0,38.771l174.543,0Z" style="fill:#279ae6;fill-rule:nonzero;"/><path d="M163.959,219.433l0,-29.082l-34.871,0l17.435,19.388l-17.435,19.384l46.49,0l-11.619,-9.69Z" style="fill:#1b90d9;fill-rule:nonzero;"/><path d="M200.533,204.045c0.156,0 0.295,0.058 0.416,0.179l1.126,1.225c-0.626,0.773 -1.39,1.368 -2.306,1.779c-0.911,0.411 -2.011,0.621 -3.289,0.621c-1.144,0 -2.172,-0.196 -3.084,-0.585c-0.912,-0.393 -1.694,-0.934 -2.338,-1.632c-0.648,-0.698 -1.14,-1.529 -1.483,-2.49c-0.345,-0.965 -0.519,-2.02 -0.519,-3.164c0,-1.157 0.183,-2.222 0.555,-3.183c0.366,-0.965 0.889,-1.792 1.559,-2.485c0.671,-0.692 1.471,-1.237 2.4,-1.626c0.93,-0.384 1.963,-0.577 3.089,-0.577c1.121,0 2.118,0.183 2.99,0.555c0.872,0.37 1.609,0.853 2.222,1.447l-0.956,1.332c-0.058,0.085 -0.125,0.16 -0.215,0.223c-0.089,0.067 -0.215,0.094 -0.371,0.094c-0.107,0 -0.214,-0.031 -0.331,-0.089c-0.111,-0.063 -0.237,-0.134 -0.37,-0.223c-0.134,-0.09 -0.291,-0.183 -0.465,-0.291c-0.179,-0.107 -0.384,-0.205 -0.616,-0.295c-0.237,-0.089 -0.505,-0.165 -0.814,-0.228c-0.309,-0.058 -0.671,-0.089 -1.073,-0.089c-0.688,0 -1.319,0.125 -1.891,0.366c-0.572,0.246 -1.068,0.599 -1.475,1.069c-0.411,0.464 -0.732,1.032 -0.96,1.703c-0.229,0.67 -0.34,1.435 -0.34,2.297c0,0.862 0.125,1.635 0.37,2.311c0.241,0.674 0.572,1.242 0.992,1.703c0.42,0.461 0.912,0.814 1.48,1.06c0.568,0.245 1.179,0.37 1.833,0.37c0.393,0 0.746,-0.022 1.063,-0.063c0.318,-0.04 0.608,-0.111 0.876,-0.201c0.264,-0.094 0.519,-0.215 0.756,-0.358c0.237,-0.147 0.474,-0.322 0.706,-0.536c0.072,-0.067 0.147,-0.116 0.224,-0.157c0.076,-0.041 0.16,-0.058 0.245,-0.058l-0.006,-0.004Zm6.391,-9.493l0,4.274l5.39,0l0,2.203l-5.39,0l0,4.357l6.838,0l0,2.289l-9.712,0l0,-15.401l9.712,0l0,2.279l-6.838,0l0,-0.001Zm14.029,5.051c0.541,0 1.01,-0.072 1.413,-0.206c0.403,-0.134 0.732,-0.322 0.988,-0.558c0.259,-0.237 0.451,-0.519 0.581,-0.845c0.129,-0.326 0.192,-0.684 0.192,-1.077c0,-0.782 -0.254,-1.381 -0.773,-1.8c-0.514,-0.42 -1.301,-0.63 -2.36,-0.63l-1.833,0l0,5.113l1.792,0l0,0.003Zm7.37,8.071l-2.588,0c-0.491,0 -0.844,-0.193 -1.063,-0.572l-3.241,-4.934c-0.121,-0.183 -0.25,-0.318 -0.398,-0.393c-0.147,-0.076 -0.361,-0.116 -0.648,-0.116l-1.225,0l0,6.016l-2.865,0l0,-15.401l4.697,0c1.041,0 1.94,0.107 2.691,0.322c0.751,0.218 1.363,0.522 1.841,0.916c0.478,0.389 0.832,0.854 1.06,1.399c0.228,0.541 0.34,1.144 0.34,1.797c0,0.519 -0.077,1.011 -0.229,1.471c-0.152,0.461 -0.37,0.881 -0.662,1.256c-0.286,0.376 -0.643,0.707 -1.063,0.992c-0.42,0.282 -0.908,0.505 -1.448,0.671c0.183,0.102 0.358,0.232 0.51,0.375c0.157,0.147 0.299,0.322 0.425,0.519l3.857,5.685l0.009,0l0,-0.003Zm12.023,-13.046l0,-2.351l-12.153,0l0,2.351l4.644,0l0,13.046l2.865,0l0,-13.046l4.644,0Zm4.902,13.046l-2.878,0l0,-15.401l2.878,0l0,15.401Zm6.316,-13.122l0,4.559l5.77,0l0,2.292l-5.77,0l0,6.271l-2.878,0l0,-15.401l9.713,0l0,2.279l-6.839,0l0.004,0Zm12.058,13.122l-2.874,0l0,-15.401l2.874,0l0,15.401Zm14.017,-3.629c0.157,0 0.295,0.058 0.416,0.179l1.126,1.225c-0.626,0.773 -1.389,1.368 -2.306,1.779c-0.911,0.411 -2.01,0.621 -3.285,0.621c-1.144,0 -2.172,-0.196 -3.084,-0.585c-0.911,-0.393 -1.693,-0.934 -2.338,-1.632c-0.648,-0.698 -1.139,-1.529 -1.483,-2.49c-0.344,-0.965 -0.519,-2.02 -0.519,-3.164c0,-1.157 0.183,-2.222 0.555,-3.183c0.367,-0.965 0.889,-1.792 1.56,-2.485c0.67,-0.692 1.471,-1.237 2.4,-1.626c0.929,-0.384 1.962,-0.577 3.088,-0.577c1.122,0 2.119,0.183 2.99,0.555c0.872,0.37 1.61,0.853 2.222,1.447l-0.956,1.332c-0.058,0.085 -0.125,0.16 -0.215,0.223c-0.089,0.067 -0.21,0.094 -0.37,0.094c-0.108,0 -0.215,-0.031 -0.331,-0.089c-0.112,-0.063 -0.237,-0.134 -0.371,-0.223c-0.134,-0.09 -0.29,-0.183 -0.464,-0.291c-0.179,-0.107 -0.385,-0.205 -0.617,-0.295c-0.232,-0.09 -0.505,-0.165 -0.814,-0.228c-0.308,-0.058 -0.67,-0.089 -1.073,-0.089c-0.688,0 -1.319,0.125 -1.891,0.366c-0.571,0.246 -1.063,0.599 -1.474,1.069c-0.412,0.464 -0.733,1.032 -0.961,1.703c-0.229,0.67 -0.34,1.435 -0.34,2.297c0,0.862 0.125,1.635 0.371,2.311c0.241,0.674 0.572,1.242 0.992,1.703c0.42,0.461 0.911,0.814 1.479,1.06c0.568,0.245 1.18,0.37 1.833,0.37c0.393,0 0.746,-0.022 1.063,-0.063c0.318,-0.04 0.608,-0.111 0.872,-0.201c0.264,-0.094 0.519,-0.215 0.756,-0.358c0.237,-0.147 0.474,-0.322 0.706,-0.536c0.072,-0.067 0.148,-0.116 0.224,-0.157c0.076,-0.041 0.161,-0.058 0.246,-0.058l-0.007,-0.004Zm11.652,-2.186l-1.878,-5.122c-0.093,-0.228 -0.187,-0.496 -0.286,-0.809c-0.099,-0.312 -0.201,-0.648 -0.299,-1.014c-0.094,0.362 -0.188,0.702 -0.287,1.019c-0.098,0.313 -0.196,0.591 -0.286,0.827l-1.864,5.104l4.899,0l0,-0.005l0.001,0Zm5.059,5.815l-2.217,0c-0.246,0 -0.447,-0.063 -0.608,-0.188c-0.157,-0.125 -0.273,-0.277 -0.353,-0.46l-1.149,-3.142l-6.383,0l-1.148,3.142c-0.058,0.165 -0.17,0.312 -0.331,0.447c-0.166,0.134 -0.367,0.201 -0.608,0.201l-2.239,0l6.06,-15.401l2.919,0l6.052,15.401l0.005,0Zm10.856,-13.046l0,-2.351l-12.152,0l0,2.351l4.644,0l0,13.046l2.869,0l0,-13.046l4.644,0l-0.005,0Zm4.898,-0.076l0,4.274l5.39,0l0,2.203l-5.39,0l0,4.357l6.839,0l0,2.289l-9.713,0l0,-15.401l9.713,0l0,2.279l-6.839,0l0,-0.001Z" style="fill:#fff;fill-rule:nonzero;"/><path d="M324.769,403.229l17.896,0l0,49.468l-9.05,-8.434l-8.846,8.434l0,-49.468Z" style="fill:#fbb429;fill-rule:nonzero;"/><path d="M333.716,359.854c2.499,0 4.532,2.015 4.559,4.509l0.389,0.076c0.979,-2.292 3.629,-3.379 5.939,-2.418c2.311,0.956 3.415,3.593 2.485,5.909l0.331,0.219c1.784,-1.748 4.644,-1.735 6.414,0.035c1.77,1.765 1.778,4.631 0.031,6.414l0.219,0.331c2.315,-0.934 4.952,0.174 5.913,2.485c0.956,2.311 -0.13,4.956 -2.422,5.936l0.076,0.389c2.494,0.027 4.51,2.06 4.51,4.558c0,2.504 -2.016,4.532 -4.51,4.559l-0.076,0.389c2.292,0.979 3.379,3.625 2.422,5.936c-0.956,2.31 -3.594,3.414 -5.909,2.485l-0.218,0.331c1.747,1.783 1.734,4.643 -0.036,6.413c-1.765,1.77 -4.63,1.779 -6.409,0.036l-0.331,0.219c0.934,2.315 -0.174,4.956 -2.485,5.913c-2.311,0.956 -4.956,-0.125 -5.935,-2.418l-0.389,0.076c-0.028,2.494 -2.061,4.51 -4.559,4.51c-2.504,0 -4.532,-2.016 -4.559,-4.51l-0.389,-0.076c-0.979,2.292 -3.625,3.374 -5.935,2.418c-2.311,-0.956 -3.415,-3.598 -2.485,-5.913l-0.331,-0.219c-1.779,1.748 -4.644,1.734 -6.414,-0.036c-1.77,-1.77 -1.779,-4.63 -0.036,-6.413l-0.219,-0.331c-2.315,0.933 -4.952,-0.175 -5.913,-2.485c-0.956,-2.311 0.125,-4.957 2.422,-5.936l-0.076,-0.389c-2.494,-0.027 -4.51,-2.056 -4.51,-4.559c0,-2.498 2.016,-4.531 4.51,-4.558l0.076,-0.389c-2.292,-0.98 -3.379,-3.625 -2.422,-5.936c0.956,-2.311 3.593,-3.415 5.913,-2.485l0.219,-0.331c-1.747,-1.783 -1.734,-4.644 0.036,-6.414c1.77,-1.77 4.63,-1.778 6.409,-0.035l0.331,-0.219c-0.93,-2.316 0.174,-4.953 2.485,-5.914c2.31,-0.956 4.956,0.125 5.935,2.423l0.389,-0.077c0.027,-2.494 2.057,-4.509 4.559,-4.509l-0.004,0l0,0.001Z" style="fill:#ff5b61;fill-rule:nonzero;"/><path d="M333.716,366.983c11.773,0 21.315,9.542 21.315,21.309c0,11.773 -9.542,21.315 -21.315,21.315c-11.772,0 -21.315,-9.542 -21.315,-21.315c0.001,-11.772 9.543,-21.309 21.315,-21.309Z" style="fill:#fff;fill-rule:nonzero;"/></svg>