<?xml version="1.0" encoding="UTF-8" standalone="no"?><!DOCTYPE svg PUBLIC "-//W3C//DTD SVG 1.1//EN" "http://www.w3.org/Graphics/SVG/1.1/DTD/svg11.dtd"><svg width="100%" height="100%" viewBox="0 0 512 512" version="1.1" xmlns="http://www.w3.org/2000/svg" xmlns:xlink="http://www.w3.org/1999/xlink" xml:space="preserve" xmlns:serif="http://www.serif.com/" style="fill-rule:evenodd;clip-rule:evenodd;stroke-linejoin:round;stroke-miterlimit:1.41421;"><path d="M255.7,503.93c136.307,0 247.479,-111.172 247.479,-247.479c0,-136.308 -111.172,-247.481 -247.479,-247.481c-136.308,0 -247.481,111.173 -247.481,247.481c0,136.307 111.173,247.479 247.481,247.479Z" style="fill:#279ae6;fill-rule:nonzero;stroke:#277ab1;stroke-width:11px;"/><path d="M208.075,142.693c-19.594,-13.866 -82.19,-55.094 -102.102,-35.186c-14.04,14.04 0.966,53.734 35.186,102.102c-58.395,10.004 -97.077,27.454 -97.077,47.308c0,27.381 73.065,43.196 97.077,47.312c-34.219,48.37 -49.226,88.062 -35.186,102.104c14.042,14.04 53.734,-0.968 102.102,-35.185c10.005,58.391 27.454,97.074 47.313,97.074c27.593,0 43.168,-72.851 47.311,-97.074c48.371,34.217 88.062,49.225 102.102,35.185c14.043,-14.042 -0.966,-53.734 -35.186,-102.104c58.398,-10.004 97.077,-27.452 97.077,-47.312c0,-19.857 -38.679,-37.304 -97.077,-47.308c21.069,-29.785 34.854,-56.272 39.061,-75.513c6.057,-35.335 -26.704,-31.26 -36.187,-28.993c-18.62,5.444 -42.859,18.536 -69.791,37.589c-10.003,-58.395 -27.454,-97.077 -47.311,-97.077c-19.858,0.001 -37.306,38.683 -47.312,97.078Zm-139.869,114.228c0,-16.127 31.156,-30.391 78.909,-39.067c9.303,12.613 19.824,25.732 31.401,39.067c-11.578,13.341 -22.098,26.457 -31.401,39.07c-19.88,-3.618 -78.909,-17.933 -78.909,-39.07Zm187.18,187.18c-16.13,0 -30.396,-31.158 -39.07,-78.908c12.613,-9.304 25.732,-19.825 39.07,-31.405c13.338,11.58 26.457,22.098 39.07,31.405c-3.603,19.844 -18.026,78.908 -39.07,78.908Zm136.56,-304.491l0,0.01l-0.064,0.737l-0.003,0.023l-0.071,0.744l-0.004,0.033l-0.089,0.743l-0.008,0.045l-0.099,0.741l-0.009,0.061l-0.114,0.74l-0.01,0.071l-0.127,0.738l-0.015,0.088l-0.137,0.736l-0.018,0.099l-0.15,0.733l-0.023,0.114l-0.159,0.729l-0.03,0.132l-0.168,0.728l-0.033,0.142l-0.179,0.723l-0.041,0.164l-0.187,0.718l-0.049,0.178l-0.192,0.709l-0.056,0.195l-0.203,0.708l-0.061,0.211l-0.03,0.097l-0.251,0.834l-0.213,0.697l-0.078,0.245l-0.224,0.69l-0.086,0.261l-0.231,0.682l-0.094,0.28l-0.233,0.674l-0.104,0.3l-0.239,0.664l-0.114,0.314l-0.243,0.662l-0.125,0.338l-0.383,1.001l-0.248,0.642l-0.147,0.373l-0.254,0.632l-0.157,0.393l-0.256,0.624l-0.171,0.413l-0.256,0.611l-0.182,0.434l-0.26,0.602l-0.198,0.454l-0.256,0.591l-0.208,0.473l-0.261,0.579l-0.225,0.496l-0.259,0.566l-0.236,0.517l-0.259,0.555l-0.253,0.538l-0.257,0.542l-0.268,0.561l-0.256,0.529l-0.282,0.581l-0.256,0.522l-0.297,0.602l-0.028,0.053l-0.54,1.078l-0.249,0.494l-0.326,0.647l-0.249,0.476l-0.345,0.672l-0.244,0.464l-0.362,0.692l-0.239,0.449l-0.383,0.717l-0.233,0.434l-0.4,0.741l-0.55,1.004l-0.097,0.18l-0.223,0.4l-0.439,0.791l-0.218,0.386l-0.455,0.814l-0.21,0.37l-0.475,0.834l-0.205,0.355l-0.494,0.859l-0.195,0.34l-0.515,0.884l-0.192,0.322l-0.534,0.911l-0.183,0.304l-0.555,0.933l-0.172,0.289l-0.575,0.956l-0.166,0.269l-0.598,0.986l-0.158,0.253l-0.621,1.007l-0.145,0.236l-0.647,1.034l-0.134,0.213l-0.667,1.059l-0.125,0.198l-0.687,1.086l-0.117,0.178l-0.71,1.111l-0.104,0.157l-0.736,1.136l-0.091,0.139l-0.761,1.164l-0.078,0.122l-0.786,1.187l-0.069,0.102l-0.809,1.212l-0.056,0.084l-0.834,1.24l-0.041,0.061l-0.857,1.268l-0.028,0.04l-0.885,1.296l-0.015,0.02l-0.911,1.318c-15.495,-2.343 -32.208,-4.179 -49.831,-5.426c-1.248,-17.623 -3.086,-34.339 -5.427,-49.834c27.183,-18.822 50.752,-30.363 66.623,-32.203c23.154,0.334 23.154,7.427 21.008,19.078l-0.003,-0.002Zm-185.487,13.124c-2.343,15.496 -4.184,32.211 -5.429,49.834c-17.62,1.248 -34.336,3.084 -49.828,5.427c-27.629,-39.905 -39.575,-72.024 -28.169,-83.43c15.828,-15.828 67.939,17.448 83.429,28.169l-0.003,0Zm48.927,47.95c-3.542,0 -7.065,0.023 -10.561,0.071c3.534,-3.236 7.057,-6.387 10.561,-9.463l0.003,-0.003c3.501,3.073 7.026,6.232 10.558,9.466c-3.496,-0.046 -7.019,-0.071 -10.561,-0.071Zm39.765,16.472c-2.503,-2.508 -5.013,-4.98 -7.518,-7.419c4.785,0.212 9.507,0.471 14.161,0.776c0.305,4.653 0.563,9.377 0.777,14.161c-2.442,-2.507 -4.912,-5.015 -7.42,-7.518Zm-86.95,72.009c2.442,2.508 4.914,5.015 7.42,7.521c2.506,2.506 5.013,4.978 7.518,7.42c-4.785,-0.213 -9.507,-0.472 -14.161,-0.777c-0.305,-4.655 -0.561,-9.377 -0.774,-14.161l-0.003,-0.003Zm-18.446,-32.244c3.073,-3.504 6.232,-7.026 9.466,-10.561c-0.046,3.496 -0.069,7.018 -0.069,10.561c0,3.542 0.023,7.065 0.069,10.563c-3.233,-3.534 -6.39,-7.057 -9.466,-10.561l0,-0.002Zm55.07,56.163c3.499,0.045 7.021,0.068 10.561,0.068c3.542,0 7.065,-0.023 10.561,-0.068l-0.165,0.151l-0.167,0.152l-0.165,0.15l-0.165,0.152l-0.165,0.152l-0.165,0.151l-0.168,0.152l-0.164,0.15l-0.167,0.152l-0.166,0.147l0,0.003l-0.167,0.147l-0.164,0.151l-0.167,0.15l-0.166,0.152l-0.167,0.147l-0.164,0.152l-0.166,0.149l-0.002,0l-0.166,0.147l0,0.003l-0.165,0.147l-0.167,0.15l-0.166,0.147l-0.165,0.15l-0.003,0l-0.165,0.15l-0.164,0.147l-0.166,0.15l-0.165,0.146l-0.165,0.15l-0.165,0.15l-0.165,0.147l-0.165,0.147l-0.166,0.147l-0.162,0.147l-0.003,0.003l-0.165,0.147l-0.166,0.147l0,0.003l-0.165,0.147l-0.003,0l-0.159,0.146l-0.003,0.003l-0.163,0.145l0,0.003l-0.165,0.145l-0.165,0.147l-0.003,0l-0.16,0.147l-0.003,0l-0.162,0.145l0,0.003l-0.165,0.145l0,0.003l-0.166,0.145l0,0.003l-0.165,0.145l-0.164,0.145l0,0.003l-0.163,0.145l-0.003,0.003l-0.159,0.145l-0.003,0l-0.159,0.145l-0.003,0.003l-0.163,0.145l-0.003,0l-0.162,0.145l-0.165,0.145l-0.003,0.003l-0.163,0.142l-0.003,0.003l-0.162,0.142l0,0.003l-0.162,0.145l-0.163,0.145l-0.003,0l-0.162,0.142l-0.003,0.003l-0.16,0.145l-0.002,0l-0.16,0.145l-0.003,0l-0.162,0.142l-0.003,0l-0.163,0.145l-0.162,0.145l-0.165,0.145l-0.163,0.142l-0.003,0.003l-0.159,0.142l-0.003,0.003c-3.501,-3.076 -7.024,-6.233 -10.558,-9.468l-0.004,0.002Zm76.193,-56.166c-3.077,3.508 -6.231,7.029 -9.467,10.564c0.046,-3.5 0.069,-7.022 0.069,-10.564c0,-3.542 -0.023,-7.062 -0.069,-10.561c3.233,3.532 6.39,7.054 9.467,10.558l0,0.003Zm-105.397,-39.762c-2.503,2.503 -4.978,5.011 -7.42,7.518c0.213,-4.785 0.469,-9.508 0.774,-14.161c4.656,-0.305 9.377,-0.563 14.161,-0.776c-2.505,2.439 -5.013,4.913 -7.518,7.419l0.003,0Zm86.95,72.009c-0.213,4.787 -0.472,9.509 -0.777,14.162c-4.655,0.304 -9.377,0.562 -14.161,0.776c2.506,-2.439 5.015,-4.914 7.518,-7.42c2.508,-2.504 4.978,-5.013 7.42,-7.521l0,0.003Zm-53.625,-103.454c-5.548,4.932 -11.124,10.038 -16.711,15.308c-7.678,0.225 -15.237,0.558 -22.646,0.994c1.212,-15.435 2.915,-30.021 5.048,-43.47c11.018,8.005 22.538,17.114 34.309,27.168Zm-91.937,30.458c13.452,-2.128 28.037,-3.837 43.469,-5.046c-0.436,7.409 -0.768,14.966 -0.992,22.646c-5.271,5.584 -10.378,11.162 -15.307,16.711c-10.059,-11.773 -19.163,-23.29 -27.17,-34.311Zm27.17,47.195c4.929,5.548 10.038,11.124 15.307,16.711c0.224,7.678 0.558,15.237 0.992,22.646c-15.432,-1.212 -30.017,-2.915 -43.469,-5.048c8.005,-11.021 17.111,-22.538 27.17,-34.309Zm48.056,49.459c5.586,5.269 11.165,10.378 16.711,15.308c-11.771,10.056 -23.29,19.162 -34.308,27.169c-2.133,-13.452 -3.839,-28.039 -5.048,-43.469c7.409,0.434 14.967,0.766 22.645,0.992Zm29.594,15.308c5.545,-4.93 11.124,-10.037 16.711,-15.308c7.678,-0.226 15.237,-0.558 22.646,-0.992c-1.209,15.43 -2.915,30.017 -5.046,43.469c-11.021,-8.004 -22.537,-17.111 -34.311,-27.169Zm91.934,-30.459c-13.449,2.133 -28.035,3.837 -43.469,5.048c0.436,-7.409 0.77,-14.968 0.994,-22.646c5.269,-5.586 10.375,-11.165 15.308,-16.711c10.056,11.772 19.162,23.289 27.167,34.309Zm-27.167,-47.189c-4.929,-5.551 -10.038,-11.127 -15.308,-16.711c-0.223,-7.68 -0.557,-15.237 -0.993,-22.646c15.434,1.209 30.02,2.915 43.469,5.046c-8.006,11.021 -17.112,22.54 -27.168,34.311Zm-48.059,-49.461c-5.586,-5.27 -11.162,-10.376 -16.711,-15.308c11.771,-10.054 23.291,-19.166 34.311,-27.168c2.13,13.449 3.837,28.035 5.046,43.469c-7.409,-0.436 -14.968,-0.768 -22.646,-0.993Zm10.716,22.035c4.714,4.714 9.304,9.43 13.764,14.139c0.172,6.484 0.261,13.062 0.261,19.725c0,6.664 -0.089,13.244 -0.261,19.728c-4.46,4.706 -9.052,9.425 -13.764,14.139c-4.714,4.712 -9.433,9.304 -14.139,13.766c-6.484,0.172 -13.061,0.261 -19.725,0.261c-6.664,0 -13.244,-0.091 -19.728,-0.261c-4.706,-4.465 -9.425,-9.055 -14.139,-13.766c-4.712,-4.712 -9.301,-9.433 -13.764,-14.139c-0.172,-6.484 -0.261,-13.064 -0.261,-19.728c0,-6.663 0.089,-13.241 0.261,-19.725c4.46,-4.709 9.052,-9.425 13.764,-14.139c4.712,-4.714 9.433,-9.301 14.139,-13.766c6.484,-0.172 13.064,-0.261 19.728,-0.261c6.664,0 13.241,0.089 19.725,0.261c4.706,4.462 9.425,9.051 14.139,13.766Zm-82.794,138.05c-39.907,27.632 -72.029,39.575 -83.429,28.17c-11.406,-11.404 0.54,-43.526 28.169,-83.43c15.495,2.343 32.208,4.181 49.828,5.429c1.248,17.618 3.086,34.336 5.43,49.828l0.002,0.003Zm97.856,0c2.34,-15.492 4.179,-32.211 5.426,-49.828c17.623,-1.248 34.336,-3.086 49.831,-5.429c27.632,39.904 39.575,72.026 28.171,83.429c-11.405,11.406 -43.525,-0.54 -83.429,-28.169l0,-0.003l0.001,0Zm59.343,-65.116c-9.301,-12.61 -19.827,-25.729 -31.405,-39.07c11.578,-13.338 22.101,-26.457 31.405,-39.067c47.752,8.677 78.908,22.943 78.908,39.067c0,16.127 -31.158,30.393 -78.908,39.07Zm-108.272,-115.938c-13.341,-11.583 -26.457,-22.101 -39.07,-31.404c8.677,-47.75 22.943,-78.909 39.07,-78.909c16.127,0 30.393,31.159 39.07,78.909c-12.613,9.301 -25.732,19.827 -39.07,31.404Z" style="fill:#fff;fill-rule:nonzero;"/><path d="M154.493,100.146c9.557,0 17.31,7.75 17.31,17.307c0,9.557 -7.752,17.306 -17.31,17.306c-9.557,0 -17.309,-7.746 -17.309,-17.306c0,-9.557 7.752,-17.307 17.309,-17.307Z" style="fill:#ec4b53;fill-rule:nonzero;"/><path d="M153.183,100.146c8.834,0 15.997,7.161 15.997,15.998c0,8.835 -7.164,15.995 -15.997,15.995c-8.834,0 -15.998,-7.16 -15.998,-15.995c-0.001,-8.837 7.163,-15.998 15.998,-15.998Z" style="fill:#ff5b61;fill-rule:nonzero;"/><path d="M400.164,115.145c9.557,0 17.309,7.749 17.309,17.309c0,9.56 -7.749,17.306 -17.309,17.306c-9.557,0 -17.309,-7.746 -17.309,-17.306c0.001,-9.558 7.752,-17.309 17.309,-17.309Z" style="fill:#15bdb1;fill-rule:nonzero;"/><path d="M398.851,115.145c8.834,0 15.997,7.161 15.997,15.997c0,8.834 -7.163,15.996 -15.997,15.996c-8.832,0 -15.997,-7.161 -15.997,-15.996c-0.001,-8.836 7.162,-15.997 15.997,-15.997Z" style="fill:#20d0c2;fill-rule:nonzero;"/><path d="M110.89,274.942c9.557,0 17.309,7.749 17.309,17.309c0,9.56 -7.749,17.306 -17.309,17.306c-9.557,0 -17.309,-7.746 -17.309,-17.306c0,-9.557 7.752,-17.309 17.309,-17.309Z" style="fill:#15bdb1;fill-rule:nonzero;"/><path d="M109.576,274.942c8.835,0 15.997,7.16 15.997,15.997c0,8.835 -7.163,15.997 -15.997,15.997c-8.834,0 -15.995,-7.159 -15.995,-15.996c0,-8.838 7.161,-15.998 15.995,-15.998Z" style="fill:#20d0c2;fill-rule:nonzero;"/><path d="M290.15,388.869c9.557,0 17.311,7.746 17.311,17.306c0,9.56 -7.751,17.306 -17.311,17.306c-9.557,0 -17.306,-7.746 -17.306,-17.306c0,-9.558 7.749,-17.306 17.306,-17.306Z" style="fill:#ec4b53;fill-rule:nonzero;"/><path d="M288.839,388.869c8.834,0 15.998,7.16 15.998,15.997c0,8.835 -7.161,15.995 -15.998,15.995c-8.834,0 -15.997,-7.16 -15.997,-15.995c0,-8.837 7.163,-15.997 15.997,-15.997Z" style="fill:#ff5b61;fill-rule:nonzero;"/><path d="M255.386,230.374c14.664,0 26.549,11.885 26.549,26.546c0,14.661 -11.888,26.546 -26.549,26.546c-14.659,0 -26.546,-11.882 -26.546,-26.546c0,-14.661 11.888,-26.546 26.546,-26.546Z" style="fill:#f5a209;fill-rule:nonzero;"/><path d="M253.378,230.374c13.551,0 24.535,10.985 24.535,24.535c0,13.551 -10.986,24.533 -24.535,24.533c-13.548,0 -24.535,-10.985 -24.535,-24.533c0,-13.55 10.987,-24.535 24.535,-24.535Z" style="fill:#fbb429;fill-rule:nonzero;"/></svg>