<?xml version="1.0" encoding="UTF-8" standalone="no"?><!DOCTYPE svg PUBLIC "-//W3C//DTD SVG 1.1//EN" "http://www.w3.org/Graphics/SVG/1.1/DTD/svg11.dtd"><svg width="100%" height="100%" viewBox="0 0 512 512" version="1.1" xmlns="http://www.w3.org/2000/svg" xmlns:xlink="http://www.w3.org/1999/xlink" xml:space="preserve" xmlns:serif="http://www.serif.com/" style="fill-rule:evenodd;clip-rule:evenodd;stroke-linejoin:round;stroke-miterlimit:1.41421;"><path d="M256.001,0c141.385,0 255.999,114.614 255.999,255.999c0,141.387 -114.614,256.001 -255.999,256.001c-141.385,0 -256.001,-114.614 -256.001,-256.001c0,-141.385 114.616,-255.999 256.001,-255.999Z" style="fill:#3f8a94;fill-rule:nonzero;"/><path d="M466.804,401.261c-46.181,66.893 -123.366,110.739 -210.803,110.739c-87.438,0 -164.62,-43.846 -210.803,-110.74l421.606,0l0,0.001Z" style="fill:#15bdb1;fill-rule:nonzero;"/><g><rect x="58.732" y="218.808" width="394.536" height="182.452" style="fill:#fff;fill-rule:nonzero;"/><rect x="253.27" y="29.59" width="3.899" height="54.716" style="fill:#fff;fill-rule:nonzero;"/></g><g><path d="M295.896,42.749c0,0 -4.578,-10.235 -17.347,-6.628c-12.769,3.606 -21.38,-6.437 -21.38,-6.437l0,26.514c0,0 10.558,7.701 20.112,4.483c9.553,-3.217 21.08,5.944 21.08,5.944l-2.465,-23.876Z" style="fill:#0a5660;fill-rule:nonzero;"/><rect x="54.423" y="218.808" width="403.155" height="14.928" style="fill:#0a5660;fill-rule:nonzero;"/></g><path d="M362.727,136.586l0,264.675l-215.017,0l0,-264.675l107.508,-39.13l107.509,39.13Z" style="fill:#fff;fill-rule:nonzero;"/><path d="M138.047,122.817l117.172,-42.649l117.173,42.649l0,17.288l-117.174,-42.649l-117.172,42.649l0,-17.288l0.001,0Z" style="fill:#0a5660;fill-rule:nonzero;"/><g><path d="M410.898,401.261l-48.171,-167.525l0,167.525l48.171,0Z" style="fill:#ecf0f1;fill-rule:nonzero;"/><rect x="141.901" y="233.736" width="5.809" height="167.524" style="fill:#ecf0f1;fill-rule:nonzero;"/></g><rect x="74.929" y="243.812" width="21.258" height="38.128" style="fill:#fff;fill-rule:nonzero;"/><rect x="76.118" y="245" width="18.878" height="35.75" style="fill:#20d0c2;fill-rule:nonzero;"/><rect x="107.832" y="243.812" width="21.258" height="38.128" style="fill:#fff;fill-rule:nonzero;"/><rect x="109.021" y="245" width="18.878" height="35.75" style="fill:#20d0c2;fill-rule:nonzero;"/><rect x="74.929" y="295.961" width="21.258" height="38.129" style="fill:#fff;fill-rule:nonzero;"/><rect x="76.118" y="297.151" width="18.878" height="35.75" style="fill:#20d0c2;fill-rule:nonzero;"/><rect x="107.832" y="295.961" width="21.258" height="38.129" style="fill:#fff;fill-rule:nonzero;"/><rect x="109.021" y="297.151" width="18.878" height="35.75" style="fill:#20d0c2;fill-rule:nonzero;"/><rect x="74.929" y="348.109" width="21.258" height="38.129" style="fill:#fff;fill-rule:nonzero;"/><rect x="76.118" y="349.299" width="18.878" height="35.749" style="fill:#20d0c2;fill-rule:nonzero;"/><rect x="107.832" y="348.109" width="21.258" height="38.129" style="fill:#fff;fill-rule:nonzero;"/><rect x="109.021" y="349.299" width="18.878" height="35.749" style="fill:#20d0c2;fill-rule:nonzero;"/><rect x="186.541" y="145.097" width="22.451" height="40.27" style="fill:#fff;fill-rule:nonzero;"/><rect x="187.796" y="146.352" width="19.939" height="37.759" style="fill:#20d0c2;fill-rule:nonzero;"/><rect x="221.291" y="145.097" width="22.451" height="40.27" style="fill:#fff;fill-rule:nonzero;"/><rect x="222.547" y="146.352" width="19.939" height="37.759" style="fill:#20d0c2;fill-rule:nonzero;"/><rect x="186.541" y="200.175" width="22.451" height="40.272" style="fill:#fff;fill-rule:nonzero;"/><rect x="187.796" y="201.432" width="19.939" height="37.758" style="fill:#20d0c2;fill-rule:nonzero;"/><rect x="221.291" y="200.175" width="22.451" height="40.272" style="fill:#fff;fill-rule:nonzero;"/><rect x="222.547" y="201.432" width="19.939" height="37.758" style="fill:#20d0c2;fill-rule:nonzero;"/><rect x="186.541" y="255.255" width="22.451" height="40.271" style="fill:#fff;fill-rule:nonzero;"/><rect x="187.796" y="256.51" width="19.939" height="37.759" style="fill:#20d0c2;fill-rule:nonzero;"/><rect x="221.291" y="255.255" width="22.451" height="40.271" style="fill:#fff;fill-rule:nonzero;"/><rect x="222.547" y="256.51" width="19.939" height="37.759" style="fill:#20d0c2;fill-rule:nonzero;"/><rect x="266.695" y="145.097" width="22.453" height="40.27" style="fill:#fff;fill-rule:nonzero;"/><rect x="267.952" y="146.352" width="19.939" height="37.759" style="fill:#20d0c2;fill-rule:nonzero;"/><rect x="301.446" y="145.097" width="22.451" height="40.27" style="fill:#fff;fill-rule:nonzero;"/><rect x="302.703" y="146.352" width="19.939" height="37.759" style="fill:#20d0c2;fill-rule:nonzero;"/><rect x="266.695" y="200.175" width="22.453" height="40.272" style="fill:#fff;fill-rule:nonzero;"/><rect x="267.952" y="201.432" width="19.939" height="37.758" style="fill:#20d0c2;fill-rule:nonzero;"/><rect x="301.446" y="200.175" width="22.451" height="40.272" style="fill:#fff;fill-rule:nonzero;"/><rect x="302.703" y="201.432" width="19.939" height="37.758" style="fill:#20d0c2;fill-rule:nonzero;"/><rect x="266.695" y="255.255" width="22.453" height="40.271" style="fill:#fff;fill-rule:nonzero;"/><rect x="267.952" y="256.51" width="19.939" height="37.759" style="fill:#20d0c2;fill-rule:nonzero;"/><rect x="301.446" y="255.255" width="22.451" height="40.271" style="fill:#fff;fill-rule:nonzero;"/><rect x="302.703" y="256.51" width="19.939" height="37.759" style="fill:#20d0c2;fill-rule:nonzero;"/><rect x="186.541" y="310.231" width="22.451" height="40.271" style="fill:#fff;fill-rule:nonzero;"/><rect x="187.796" y="311.487" width="19.939" height="37.76" style="fill:#20d0c2;fill-rule:nonzero;"/><rect x="221.291" y="310.231" width="22.451" height="40.271" style="fill:#fff;fill-rule:nonzero;"/><rect x="222.547" y="311.487" width="19.939" height="37.76" style="fill:#20d0c2;fill-rule:nonzero;"/><rect x="266.695" y="310.231" width="22.453" height="40.271" style="fill:#fff;fill-rule:nonzero;"/><rect x="267.952" y="311.487" width="19.939" height="37.76" style="fill:#20d0c2;fill-rule:nonzero;"/><rect x="301.446" y="310.231" width="22.451" height="40.271" style="fill:#fff;fill-rule:nonzero;"/><rect x="302.703" y="311.487" width="19.939" height="37.76" style="fill:#20d0c2;fill-rule:nonzero;"/><rect x="383.713" y="243.812" width="21.258" height="38.128" style="fill:#fff;fill-rule:nonzero;"/><rect x="384.902" y="245" width="18.878" height="35.75" style="fill:#20d0c2;fill-rule:nonzero;"/><rect x="416.613" y="243.812" width="21.258" height="38.128" style="fill:#fff;fill-rule:nonzero;"/><rect x="417.803" y="245" width="18.878" height="35.75" style="fill:#20d0c2;fill-rule:nonzero;"/><rect x="383.713" y="295.961" width="21.258" height="38.129" style="fill:#fff;fill-rule:nonzero;"/><rect x="384.902" y="297.151" width="18.878" height="35.75" style="fill:#20d0c2;fill-rule:nonzero;"/><rect x="416.613" y="295.961" width="21.258" height="38.129" style="fill:#fff;fill-rule:nonzero;"/><rect x="417.803" y="297.151" width="18.878" height="35.75" style="fill:#20d0c2;fill-rule:nonzero;"/><rect x="383.713" y="348.109" width="21.258" height="38.129" style="fill:#fff;fill-rule:nonzero;"/><rect x="384.902" y="349.299" width="18.878" height="35.749" style="fill:#20d0c2;fill-rule:nonzero;"/><rect x="416.613" y="348.109" width="21.258" height="38.129" style="fill:#fff;fill-rule:nonzero;"/><g><rect x="417.803" y="349.299" width="18.878" height="35.749" style="fill:#20d0c2;fill-rule:nonzero;"/><path d="M153.551,394.493l32.741,0l-16.369,-55.271l-16.372,55.271Z" style="fill:#20d0c2;fill-rule:nonzero;"/></g><path d="M169.923,394.493l16.369,0l-16.369,-55.271l0,55.271Z" style="fill:#15bdb1;fill-rule:nonzero;"/><path d="M169,394.493l1.844,0l0.782,18.351l-3.647,0l1.021,-18.351Z" style="fill:#fbb429;fill-rule:nonzero;"/><path d="M325.711,394.493l32.74,0l-16.369,-55.271l-16.371,55.271Z" style="fill:#20d0c2;fill-rule:nonzero;"/><path d="M342.081,394.493l16.369,0l-16.369,-55.271l0,55.271Z" style="fill:#15bdb1;fill-rule:nonzero;"/><path d="M341.159,394.493l1.842,0l0.782,18.351l-3.648,0l1.024,-18.351Z" style="fill:#fbb429;fill-rule:nonzero;"/><path d="M265.602,401.261l13.254,109.725c-7.53,0.667 -15.153,1.015 -22.855,1.015c-7.704,0 -15.325,-0.348 -22.854,-1.015l13.253,-109.725l19.202,0Z" style="fill:#fff;fill-rule:nonzero;"/><path d="M247.596,401.261l16.811,0l10.549,110.041c-6.259,0.458 -12.58,0.699 -18.954,0.699c-6.377,0 -12.695,-0.242 -18.954,-0.699l10.548,-110.041Z" style="fill:#807d7d;fill-rule:nonzero;"/><path d="M254.824,504.759l2.356,0l0,7.238l-1.179,0.003l-1.177,-0.004l0,-7.237Zm0,-94.301l2.356,0l0,11.786l-2.356,0l0,-11.786Zm0,18.859l2.356,0l0,11.789l-2.356,0l0,-11.789Zm0,18.861l2.356,0l0,11.786l-2.356,0l0,-11.786Zm0,18.861l2.356,0l0,11.786l-2.356,0l0,-11.786Zm0,18.859l2.356,0l0,11.789l-2.356,0l0,-11.789Z" style="fill:#d0d1d4;fill-rule:nonzero;"/><path d="M240.561,358.94l29.316,0c2.745,0 4.99,2.243 4.99,4.988l0,37.333l-39.295,0l0,-37.333c-0.001,-2.745 2.244,-4.988 4.989,-4.988Z" style="fill:#ecf0f1;fill-rule:nonzero;"/></svg>